<svg width="912" height="437" viewBox="0 0 912 437" fill="none" xmlns="http://www.w3.org/2000/svg">
<mask id="mask0_1_54" style="mask-type:luminance" maskUnits="userSpaceOnUse" x="0" y="0" width="911" height="437">
<path d="M911 0H0V437H911V0Z" fill="white"/>
</mask>
<g mask="url(#mask0_1_54)">
<path d="M93.3975 243L83.9079 211.5L62.9309 184.5L0 140L47.4479 102M93.3975 243V267.5L83.9079 293L114.374 302.5H152.832M93.3975 243L120.368 237.5L83.9079 156L103.886 149M284.688 393.5H247.728L231.246 360L210.269 334L164.819 302.5H152.832M284.688 393.5H335.632M284.688 393.5L306.663 278.5L281.691 237.5M686.247 300.5L671.763 326.5L686.247 354L635.802 397L575.368 404.513M686.247 300.5L735.193 316.5L762.663 290L798.124 283L819.101 253M686.247 300.5L671.763 255.5M819.101 253L861.554 237.5H906.505L911.499 226.5L869.546 180L839.079 186L833.585 191H798.124L793.629 171.5L825.094 102L762.663 81.5L691.741 117.5M819.101 253L767.657 243L708.722 191M691.741 117.5L632.306 129.5L591.85 123.364M691.741 117.5L708.722 191M415.044 60.5L447.509 85.5L467.237 79.5M415.044 60.5L408.052 33.5L317.152 0L287.185 47L299.671 73.5L271.202 102M415.044 60.5L422.037 77L408.052 98.2377L429.029 109.5L396.565 140M271.202 102L220.258 98.2377M271.202 102L262.712 125.5L291.18 136L323.145 133V168M47.4479 102L114.374 60.5L170.313 65L210.269 97.5L220.258 98.2377M47.4479 102L67.9254 97.5L103.886 149M103.886 149L120.368 140L130.357 156L152.832 152L164.819 165M152.832 302.5L168.315 241L186.795 231L166.779 195M164.819 165L157.327 178L166.779 195M164.819 165L170.313 152H196.285L223.754 140L220.258 98.2377M166.779 195H204.775L244.731 218.5L262.712 237.5H281.691M281.691 237.5L291.18 211.5L304.166 195M304.166 195L299.671 178L323.145 168M304.166 195L330.637 201L337.13 195L344.622 218.5L360.604 215L383.079 231M323.145 168L347.618 165L360.604 140L371.592 133L396.565 140M396.565 140L451.504 209.833M383.079 231L390.072 255.5L380.582 295.5L393.069 310L398.563 341.5M383.079 231L422.536 224.5V206.5L451.504 209.833M398.563 341.5L357.108 351L335.632 340V393.5M398.563 341.5L455.999 295.5M335.632 393.5H372.591L407.553 406.5L442.514 423H476.477L493.958 437L559.386 406.5L575.368 404.513M455.999 295.5L508.941 318.5L525.423 334L564.88 326.5M455.999 295.5L476.477 247.5M564.88 326.5L575.368 404.513M564.88 326.5L591.85 300.5L575.368 237.5M708.722 191L676.258 211.5L671.763 255.5M591.85 123.364L582.86 122L572.871 97.5L541.406 81.5L486.965 73.5L467.237 79.5M591.85 123.364L595.185 136M597.844 224.5L582.86 201L591.85 191L602.838 165L595.185 136M597.844 224.5L608.832 253L632.306 255.5L635.802 237.5L655.78 262.5L671.763 255.5M597.844 224.5L575.368 237.5M575.368 237.5H508.941L501.949 247.5H476.477M476.477 247.5L465.988 211.5M465.988 211.5L482.47 195V184.5H471.982L476.477 157M465.988 211.5L451.504 209.833M595.185 136H564.88V152H519.929L508.941 145L501.949 152L476.477 157M476.477 157L478.622 140M467.237 79.5L482.47 109.5L479.474 133.25L479.253 135M479.253 135L472.981 133.25L469.984 135.5L464.49 133.25L461.493 139L471.982 143L478.622 140M479.253 135L478.622 140M521.927 102.5L513.436 112L511.938 133L527.421 131L541.406 135V117.5L533.414 112L527.421 116L519.929 112L521.927 102.5ZM528.42 171L532.915 192.5H548.897L560.884 196L562.882 184.5L555.89 181L549.397 172L542.904 174.5L528.42 171Z" stroke="black"/>
</g>
</svg>
