<svg width="912" height="494" viewBox="0 0 912 494" fill="none" xmlns="http://www.w3.org/2000/svg">
<g clip-path="url(#clip0_2_62)">
<mask id="mask0_2_62" style="mask-type:luminance" maskUnits="userSpaceOnUse" x="0" y="0" width="912" height="494">
<path d="M912 0H0V494H912V0Z" fill="white"/>
</mask>
<g mask="url(#mask0_2_62)">
<path d="M92.3975 243L82.9079 211.5L61.9309 184.5L-1 140L46.4479 102L66.9254 97.5L102.886 149M92.3975 243V267.5L82.9079 293L113.374 302.5H151.832M92.3975 243L119.368 237.5L82.9079 156L102.886 149M283.688 393.5H246.728L230.246 360L209.269 334L163.819 302.5H151.832M283.688 393.5H334.632M283.688 393.5L305.663 278.5L280.691 237.5M685.247 300.5L670.763 326.5L685.247 354L634.802 397L574.368 404.513M685.247 300.5L734.193 316.5L761.663 290L797.124 283L818.101 253M685.247 300.5L670.763 255.5M818.101 253L860.554 237.5H905.505L910.499 226.5L868.546 180L838.079 186L832.585 191H797.124L792.629 171.5L824.094 102L761.663 81.5L690.741 117.5M818.101 253L766.657 243L707.722 191M690.741 117.5L631.306 129.5L590.85 123.364M690.741 117.5L707.722 191M414.044 60.5L446.509 85.5L466.237 79.5M414.044 60.5L407.052 33.5L316.152 0L286.185 47L298.671 73.5L270.202 102M414.044 60.5L421.037 77L407.052 98.2377L428.029 109.5L395.565 140M270.202 102L219.258 98.2377M270.202 102L261.712 125.5L290.18 136L322.145 133V168M102.886 149L119.368 140L129.357 156L151.832 152L163.819 165M151.832 302.5L167.315 241L185.795 231L165.779 195M163.819 165L156.327 178L165.779 195M163.819 165L169.313 152H195.285L222.754 140L219.258 98.2377M219.258 98.2377L209.269 97.5L169.313 65L61.9309 102.5M165.779 195H203.775L243.731 218.5L261.712 237.5H280.691M280.691 237.5L290.18 211.5L303.166 195M303.166 195L298.671 178L322.145 168M303.166 195L329.637 201L336.13 195L343.622 218.5L359.604 215L382.079 231M322.145 168L346.618 165L359.604 140L370.592 133L395.565 140M395.565 140L450.504 209.833M382.079 231L389.072 255.5L379.582 295.5L392.069 310L397.562 341.5M382.079 231L421.536 224.5V206.5L450.504 209.833M397.562 341.5L356.108 351L334.632 340V393.5M397.562 341.5L454.999 295.5M334.632 393.5H371.591L406.553 406.5L441.514 423H475.477L492.958 437L558.386 406.5L574.368 404.513M454.999 295.5L507.941 318.5L524.423 334L563.88 326.5M454.999 295.5L475.477 247.5M563.88 326.5L574.368 404.513M563.88 326.5L590.85 300.5L574.368 237.5M707.722 191L675.258 211.5L670.763 255.5M590.85 123.364L581.86 122L571.871 97.5L540.406 81.5L485.965 73.5L466.237 79.5M590.85 123.364L594.185 136M596.844 224.5L581.86 201L590.85 191L601.838 165L594.185 136M596.844 224.5L607.832 253L631.306 255.5L634.802 237.5L654.78 262.5L670.763 255.5M596.844 224.5L574.368 237.5M574.368 237.5H507.941L500.949 247.5H475.477M475.477 247.5L464.988 211.5M464.988 211.5L481.47 195V184.5H470.982L475.477 157M464.988 211.5L450.504 209.833M594.185 136H563.88V152H518.929L507.941 145L500.949 152L475.477 157M475.477 157L477.622 140M466.237 79.5L481.47 109.5L478.474 133.25L478.253 135M478.253 135L471.981 133.25L468.984 135.5L463.49 133.25L460.493 139L470.982 143L477.622 140M478.253 135L477.622 140M520.927 102.5L512.436 112L510.938 133L526.421 131L540.406 135V117.5L532.414 112L526.421 116L518.929 112L520.927 102.5ZM527.42 171L531.915 192.5H547.897L559.884 196L561.882 184.5L554.89 181L548.397 172L541.904 174.5L527.42 171Z" stroke="black" stroke-miterlimit="3" stroke-linecap="square"/>
</g>
</g>
<defs>
<clipPath id="clip0_2_62">
<rect width="912" height="494" fill="white"/>
</clipPath>
</defs>
</svg>
