<svg class="w-full h-auto" viewBox="0 0 913 442" fill="none" xmlns="http://www.w3.org/2000/svg">
    <path id="path1" d="M817.1 254.7L814.7 251.9L808.9 242.5L808.5 242L808.1 241.6L807.5 241.4L795.5 242L790.2 243.1L777.2 243.6L774.7 244.3L769.9 246.7L766.5 240.4L764.8 237.9L764 237L763.1 236.2L762.3 235.6L761.4 235.1L758.3 233.8L757.8 233.5L757.3 233.1L757 232.5L756.7 231.7L756.6 230.6L756.7 227.3L757.6 219.7L757.4 218.6L757 218.1L756.4 217.6L751.4 214.9L738.5 204.5L721.4 200.7L715.9 198.1L714.4 197.8H713.6L712.8 197.9L711.8 198.2L707 200.8L707.3 195.8L707 192L705.8 186.7L704.6 184.2L704.3 183.6L702.8 180.7L702.1 173.5L702.5 170.6L703.2 168.8V166.3L702.9 163.9L702.4 162.2L700.7 157.9L695.2 147.6L694.1 145L693.6 143.5L693.9 142.5L694.6 140.4V139.6L694.5 138.4L693.4 135.2L692.5 129.4L692.4 127.4L692.5 127.2L692.6 127L693.1 126.6L693.3 126.2L693.4 125.9V125.7L693.3 125.4L691.2 122.4V122.3L699.8 118.4L701 118.2L704.1 118.5L706.6 119.8L707.4 120H708.3L709.5 119.6L712.1 118.3L713.8 116.8L714.4 116.3L715 116L715.6 115.9L717.1 115.8L717.6 115.5L717.9 114.5V113L718 112.3L718.3 111.5L720.3 107.5L721 106.5L721.8 105.6L727.6 101.2L728.3 100.1L728.8 99.7001L730.3 98.6001L730.8 98.1001L732.2 96.9001L737.1 94.3001L737.7 94.2001L738.9 94.4001H739.5L739.9 94.2001L743.3 90.7001L743.9 90.3001L745.1 90.0001L745.7 89.7001L747.4 87.9001L749.8 86.5001L752.2 85.6001L753.5 85.8001L756.1 87.1001L757.5 87.5001L762.7 86.7001L765.4 87.4001L772.3 91.4001L772.8 91.9001L773.2 92.5001L773.8 93.8001L774.2 94.4001L778.3 99.0001L782.8 102.4L783.3 102.6L785.1 102.5L785.7 102.7L786.7 102.8L788.7 102.4L791.7 103.1H792.6L793.6 102.8L802.1 97.8001L804.5 97.1001L806.8 97.2001L809.1 98.1001L816.9 101.2L818.1 102.3L819.1 103.8L820 105.5L814 118.9L813.6 120L807.6 133.5L801.7 146.9L801.6 147.6L802 149.1V149.9L801.5 151.2L794.5 162.1L794.6 163.2V163.9L795.2 172.3L795.1 173.2L791 175.8L790.9 175.9L789.8 176.6L787.5 177.6L786.9 178.4V178.8L787.3 181.5V181.7L788.2 187.1L788.5 187.3L788.6 187.8L789.3 188.7L796.5 196.4L798.2 197.3L799.9 196.2L803 192.1L805.8 190.3L807.5 189.7L812.7 190.9H814.7L821.9 189.3L823.9 189.2L824.7 189.3L828.1 190.8L830.2 191.6L830.9 192L837.8 198.5L839.1 198.6L840.2 197.2L840.7 196.3L840.9 196.1L841.8 194.6L842.3 194.2L843.8 192.9L849.8 184.9L850.6 184.2L851.9 183.7L856.4 184H857.1L859 183.1L860.6 182.8H862.3L863 183L864.3 183.8L865.1 184L870.5 184.4L872.5 185.4L874.3 187.6L877.3 192.6L878.8 194.2L884.6 196.8L887.1 197.7L887.8 198.2L888.2 198.8L888.4 199.6L888.7 202.6L888.9 203.3L889.2 203.8L889.5 204V204.1L889.8 204.2H889.9L892.5 205.3L893.6 205.6L894.2 206L894.4 206.6L894.2 207L893.6 207.9L893.4 208.5L894.5 208.9L898.9 212.9L899.3 213.4L899.7 214.2L899.9 214.9L900.3 215.4L901 215.6L901.1 215.8L901.5 215.7L902 215.9L903.2 216.8L905.2 219.2L906 220.4L906.7 221.9L906.9 222.7V225.1L907 225.6L907.1 225.9L907.2 226.1L907.6 226.7L908.5 227.7L908.9 228.2L909.1 228.5V228.9L909.3 229.2L909.5 229.5L909.8 229.6H910.3L910.6 229.7L910.7 230L910.6 230.4L910.4 230.7L910.3 231V231.6L910.4 231.8L910.5 231.9L910.6 232.1H910.8L910.9 232.3V232.5L910.8 232.8V233.1V234L910.4 235.3V236L910.5 236.4L910.9 237.1L911 237.4V237.8L910.8 238.1L910.6 238.4L910.4 238.7L910.3 238.8L910.1 239.3L909.7 239.7L909 239.4L908 239.3L907.8 239.9L907.6 240.2L907.1 240.9L906.9 241.1L906.2 241.5L905.8 241.7L905 242.5L904.9 242.6H904.6L904 242.5L903 241.6L902.4 241.5H901.7L899.6 241.1L898.2 241.2L895.7 241.8H894.4L887.2 239.8L886.5 239.5L885.8 238.9L885 237.2L884.5 236.5L883.9 236.7L883.2 237.5L882.8 237.8L882.3 237.6L882 237.1L881.9 236.4L881.7 235.8L881.1 235.5L880.2 235.8L879.5 236.6L879.2 237.2L879 237.4V237.5L878.6 238.3L878 238.4L877.9 238.3L877.8 239L877.5 239.1L876.5 238.9L875.4 238.3L874.4 237.9L874 238.1L873.2 238.6L872.7 238.8H870.5L869.4 238.5L867.6 237.6L866.6 237.3L865.7 237.2H864.8L863.9 237.5L863 238.1L861.9 239.1L861.5 239.2L860 239.3L859.5 239.5L857.3 241.2L856.4 241.3L855 241.7L854.3 242L853.7 242.4L853.4 242.9H853.2L852.6 243.8L852 244.3H851.9L851.8 244.4V245.4L851.4 245.6L849.9 245.8L849.8 245.7L849.7 245.8L848.6 245.9L847.9 245.8L846.7 245L846.5 244.8L846.2 244L845.7 243.3L845.6 243.2L845.3 242.6L844.9 242.2H844.6L843.4 243.1L842.9 243.2H842.8L842.3 242.9L840 243.5L840.5 244.8V245.4L840.3 246L839.3 247.4L839 248.5L838.9 250.8L838.2 252V252.2L837.1 252.5L827.7 251.9L824.1 251.1H823.6L823.4 251.2L822.8 251.9L821 253.4L820.6 253.6L818.9 253.8L817.7 254.2L817.1 254.7Z" fill="white" stroke="#1A387A" stroke-width="3" stroke-linecap="round" stroke-linejoin="round" class="map-hover-effect" data-region-id="021"></path>
    <path id="path2" d="M65.7 97.6001L66.4 98.0001L67.9 98.9001L68.2 99.2001L68.4 99.4001L68.6 99.7001L69.3 101.6L70.1 104.3L70.4 105.7V105.9V107L70.5 107.3L70.6 107.8L70.7 108.2L72.6 111.2L73 112.2L73.5 114.3L73.6 114.5L73.8 115L74 115.4L74.1 115.9L74.3 116.4L74.5 116.6L74.8 116.9L75.5 117.7L80.8 120.3L83.8 122.8L84.1 123.5L84.3 124.2L84.2 124.7V124.9V125.3L84.3 125.4L84.4 125.9L84.9 127L85 127.2L85.1 127.3L85.9 127.7L87.5 127.8L90.3 128.2L91 128.3L91.2 128.4L91.4 128.6L91.5 129.1L91.6 130.3V130.6V130.8L91.5 131.3V131.5V131.8V132L91.6 132.4L91.8 132.7L93.6 135.5L93.8 135.8L94.1 136L94.2 136.1L94.8 138L96.5 141.8L96.9 142.2L97.6 142.7L99.7 143.4L100.1 143.6L100.3 143.8L100.5 144.1L101.1 145.2L102 146.1L102.3 146.5L102.4 146.7L102.8 147.7L103.8 151.2L103.9 151.6L104 151.9V152.2L103.9 153.3V154.1L102.5 154.2L99.7 153.5L96.8 154.1L88.3 158.1L85.3 158.7L85.2 159.2L85.3 159.6L85.5 160L85.8 160.3L87.8 161.2L88.3 161.6L88.7 162.4L89.7 165.6L89.8 166.5L89.7 167.1L88.6 168.8L88.2 169.7V170.8L88.3 172.1L88.6 173.2L89.2 176.9L89.3 177.9L89.4 178.5L89.6 179.2L90.1 179.7L91.5 180.7L91.9 181.2L92.8 182.2L93.1 182.6L93.4 183.3L94.5 187.3L96.8 194.3L97.6 195.8L98.2 196.5L98.8 197.3L99.3 198.4L101.2 204.2L101.4 205.1V206.2V207L101.2 207.7L101 208.2L100.8 208.8L100.9 209.6L101.6 210.8L105.5 215.6L107.3 218.4L107.2 219.8L105.9 223.2L105.7 224.1L105.6 225V225.9L105.9 226.8L106.5 227.9L107.8 229L108.6 229.6L109.7 230L112 231.6L114.9 234.3L116.9 237.2L119.2 238.7V239.7L119 240.5L118.3 241.1L117.8 241.4L113.7 240.8L110.2 241.2L109.7 241L108.9 240.4L108.3 240.6L108 240.9L107.6 241.6L107.1 243.1L106.6 243.7L105.9 243.9L105 243.7L104.1 243.1L103.4 242.2L102.3 240.4L101.7 239.8H100.8L100 239.9H99.1L97.3 239.1L95.3 238.6V238.5L95.1 237.8L94.6 236.6L94.2 236.5L93.4 235.1H93.3L93.1 234.7L92.8 233.8L92.4 233.2L92.8 232L92.7 231.7L92.4 231L91.8 230.3L91.7 229.2L91.1 228.2L90.7 227.9L90.4 227.4L89.8 226.9L89.2 226.5L88.6 226.3L87.9 226.4L87.3 226.2L85.6 224L85 223L84.2 222.1L83.5 220.8L83.1 219.8L82.5 219L82.4 218.9L80.4 215.3L80 214.3L79.7 214L79.2 213.3V212.9L79.6 212.4L79.7 211.4L80.1 210.8L79.6 210.3L79.1 209.5L78.5 209V208.9L78.6 207.4L79 206.7L78.9 205.8V205.6L77.9 204.4L77.2 204.1L75.8 201.4L75.6 201.1L75.3 200.5L75.5 199L75.7 198.8L75.6 198.3L75 197.8L74.4 197.5L73.6 197.3L73.4 197.1L73 197L72.4 196.9L71.7 196.8L70.4 196.2L69.2 195.3L68.2 194.2L67.8 193.7L67.6 193.1L67.7 191.8L68.1 190.8L67.5 190.6L67.6 190.3L67.5 189.5L67.1 189H65.9L64.8 188.6L64.3 188.9L64.1 189.4V190L64 190.5L63.6 191L62.7 191.4L59.7 191.6L58.8 191.4L58.5 190.9L58.2 189.7L58.1 189.3V189.2H58L57.1 188.6L56.9 188.5L56.8 188.4H56.4L56.1 188.2L55.8 187.6L55.5 186.9L55.3 186.3L54.9 186.1L54.4 186L54 185.6L53.8 185V184.3V184.2L54.4 183.6L53.8 183.7L53.7 183.1L52.9 182.6L51.8 182.7L51 183H49.6H49.1L48 182.3H47.6L47 182.6L45.6 183.7L45.1 184.2L44.5 184.8L43.7 184.9L42.3 184.6H39.7L38.9 184.3V184.2H38.8L38.5 183.7L38.2 183.1L37.5 182.3L35.6 179.9L35.2 179.5L34.4 179.3L32.8 179.5H32.4L32.2 179.4L32.1 179.5L31.2 178.9L29.3 176.9L28.5 176.6L27.8 176.7L27.3 176.5L26.9 176.2L26.8 175.8L26.6 175.4L25.6 173.5L25.5 172.6L25.3 172L25.7 171.3L26 170.2L25.4 169.8L25.3 169.4L23.7 167.5L23.6 167.2L23.5 167.3L22.8 167L22.3 167.1L21.7 167.3L21.1 167.2L20.2 166.7V166.6H20.1L18.9 164.9L18.6 164.1L18.2 163.8L17.2 163.3H17H16.4L14 163L13.4 162L12.9 161.5L11.5 160.8L10.1 160.5L8.8 159.6L8.6 159.3L8.3 158.9V158.3L9.1 157.4L9.9 156.8V156.4L9.7 156.1L10.8 155.3L11.1 154.9L11 154.4L11.1 154.3H11V153.8L10.2 152.9L8.6 151.8L8 151.6L6.8 151.7L6.5 151.5L5.3 150L4.7 149.3L4.3 149L4.1 148.7L3.6 148.3L3.5 148.2L3.3 147.9L3 147.7L2.4 147.4L2 147V146.4L2.2 145.9V145.8L2.3 145.3L2.8 144.5L4.7 143.6L5.7 142.7V141.7L5.9 141.5L5.7 141.3V141.1L5.3 140.6L4.7 140.4H4.6V139L4.8 138.1L4.5 137.5L4.6 137V136L4.2 134.7L4.1 134.1L4.7 134.4H5.2L8.1 134L8.6 133.7L9.1 133L10.1 132L12.4 130.6L13.4 129.6L13.5 128.5L12.9 127.2L12.6 125.9L13.1 124.6L13.4 124.1L13.9 122.7L14.2 122.1L14.9 121.6L20 120.7H20.7L22 121.2H22.7L24.5 121.1L25.1 120.9L26.2 120.1L26.7 120H27.2L27.6 120.4L28.4 121.4L29 122L29.6 122.1L33.9 122.4L34 122.2L33.5 120.8V119.1L33.6 118.5L33.8 118L34.4 117.8L35 118.1L35.3 118.6L35.5 119.3L35.8 120L36.1 120.4L36.3 120.9L36.5 121.3L36.9 121.6L38 121.4L42.1 119.5L43.1 118.7L43.7 117.7L43.3 116.6L42.6 115.4L42.9 114.3L43.7 113.8L44.7 114L46.3 115.6L47.1 116.1H48.1L48.8 115.3L49.4 114.2L50 113.4H51L52.3 112.5L55 111.6L56.8 110.6L57.4 110.1L57.7 109.4L57.4 108.6L56.9 108.3L55.6 107.6L55.3 107.1V106.7L55.7 106.2V105.7L55.6 105.5L55.1 105L54.9 104.7V104.2L55.1 102.5L55.2 102.1L55.5 101.8L56.4 101L57.9 100.4L62 100.3L63.6 99.9001L65 99.2001L65.7 98.1001V97.6001Z" fill="white" stroke="#1A387A" stroke-width="3" stroke-linecap="round" stroke-linejoin="round" class="map-hover-effect" data-region-id="083"></path>
    <path id="path3" d="M95.3 238.6L97.3 239.1L99.1001 239.9H100L100.8 239.8H101.7L102.3 240.4L103.4 242.2L104.1 243.1L105 243.7L105.9 243.9L106.6 243.7L107.1 243.1L107.6 241.6L108 240.9L108.3 240.6L108.9 240.4L109.7 241L110.2 241.2L113.7 240.8L117.8 241.4L118.3 241.1L119 240.5L119.2 239.7V238.7L116.9 237.2L114.9 234.3L112 231.6L109.7 230L108.6 229.6L107.8 229L106.5 227.9L105.9 226.8L105.6 225.9V225L105.7 224.1L105.9 223.2L107.2 219.8L107.3 218.4L105.5 215.6L101.6 210.8L100.9 209.6L100.8 208.8L101 208.2L101.2 207.7L101.4 207V206.2V205.1L101.2 204.2L99.3 198.4L98.8 197.3L98.2 196.5L97.6001 195.8L96.8 194.3L94.5 187.3L93.4 183.3L93.1001 182.6L92.8 182.2L91.9 181.2L91.5 180.7L90.1001 179.7L89.6001 179.2L89.4 178.5L89.3 177.9L89.2 176.9L88.6001 173.2L88.3 172.1L88.2 170.8V169.7L88.6001 168.8L89.7 167.1L89.8 166.5L89.7 165.6L88.7 162.4L88.3 161.6L87.8 161.2L85.8 160.3L85.5 160L85.3 159.6L85.2 159.2L85.3 158.7L88.3 158.1L96.8 154.1L99.7 153.5L102.5 154.2L103.9 154.1L105.2 153.6L106.8 152.2L109.5 148.5L111.3 145.5L112.2 144.6L115 142.9L116.3 142.4L117.3 142.2L118.3 142.4L119 142.9L119.5 143.4L119.8 144.1L121.7 151.5L122.3 151.9H122.8L123.5 151.6L124 151.5L124.7 151.6L125.5 152.5L126.1 153.7L127.1 156.6L127.7 157.8L128.2 158.2L128.9 158.1L130.2 157.1L130.6 156.9L140.9 159.4L144 160.2L145.4 159.6L146.7 158.5L147.9 157.1L149.3 156L150.4 155.6L151.3 155.5L152.7 155.8L153 155.9L153.2 156.1L153.3 156.2L153.7 156.5L156 157.7L156.5 158.3L156.7 158.6L156.8 158.8L156.9 159.1V159.3L157.1 160.4L157.3 161.5L157.4 162L157.5 162.2L157.7 162.5L157.8 162.7L158.5 163.2L160.3 165.2L160.9 165.7L163.5 167.1L164.4 167.8L164.7 168.1L164.8 168.3V168.6V168.8L164.7 168.9L164.6 169V169.2L164.4 169.6V169.9V170.3V171.1L164.3 171.5L164.2 171.8L163.8 172.7L162.9 174L159.5 177.6L158 178.9L156 180.2L157.2 184.1L157.8 185.7L158.1 187.2L158.2 188.4V189.5L158.5 190.3L161.9 195L164.4 199.5L164.5 201.7L164.6 202.4L164.7 203.2L165.9 204.8L168 206.8L173.9 212.2L177.9 214.8L179.8 215.7L180.2 216.4L180.4 217.2L180.3 218.3V219.5L180.7 221L181.2 222.6L182.8 225.5L185.4 229.3L186.4 231.4L186.3 232.9L186.1 233.7L185.3 234.8L184.1 235.7L178.4 238.3L175.8 239.9L172.7 242.9L171.2 243.4L170.3 243.6L167.4 243.3L166.7 243.1H166.1L165.7 243.5L165.8 244.3L166.1 245.1L167.9 248.6L168.3 249.9L168.5 251.3L168.4 252.6L168 253.7L164.7 259.5L162 266.4L161.9 267.1L162.2 269.2V269.9L161.8 270.6L161.1 271.1L160.7 271.6L159.7 273.9L159.1 274.7L158.4 275.3L155.2 277.3L154.5 278L153.9 278.9L153.7 280.3L154.4 289.2L154.3 294L152.8 306.8V307H152.1L151.5 306.9L151 306.8H150.4L150.1 306.9L148.7 306.4H147.9L146.7 305.7L146.3 305.6L145.4 305.8H144.9L143.6 305.6L140.4 306.5L138.5 306.6L135.8 307.3L135.3 307.2L134 306.7L133.5 306.6L132.2 306.9L131.4 306.6L131.2 306.7L130.4 306.4H129.9L128.5 306.8L128.2 306.7L127.8 306.3L126.5 304.9L125.1 304.7L124.5 304.4L123.6 304.2L122.6 304.1L121.6 304.2L120.1 304.5L115.2 304.3H114.6L113.4 304.7L112.8 304.8L110 304.1L109.7 304.2L109.4 304.3H109.3L108.7 303.7L108 302.7L107.1 301.8L107 301.7L106.5 301.3H105.9L105.4 301.7L104.9 302.2L104.5 302.6L103.6 302.1H102.6L101.4 301.9H100.9L99.3 301L98.9 300.7V299.9L98.1001 299.4L97.9 299.2L96.9 298.7L95.7 298.5L94.4 298.4L93.4 298.6L91.4 299.7H90.5L90.4 299.4L91.2 298.3L90.7 296.4L89.1001 295.5L88.8 294.5L88.5 292.7L87.6001 290.9L87.7 290.7L86.9 289.8L86.7 289.6L86.3 289.2L85.7 288.4L85.5 288.3L84.8 286.9L85.2 282.4L86.5 277.7L90.6001 270.5L93.8 267.5L93.9 267.1L94.8 265.2L94.9 263.4V263.3V263.2L94.1001 261.1L93.3 260.1L93.2 259.2L93.1001 258.9L92.6001 257.9L92.1001 256.7L92 256.4L91.2 255L91.9 253.6L93 252.9L93.7 250.3L94.4 249.4L94.5 247.9L95.1001 247.4L95.7 245L95.8 244.9V244.5L95.6001 243.9L95.4 243.8V243.7L95 243.1L94.4 242.9L95.3 238.7V238.6Z" fill="white" stroke="#1A387A" stroke-width="3" stroke-linecap="round" stroke-linejoin="round" class="map-hover-effect" data-region-id="084"></path>
    <path id="path4" d="M707 192L707.3 195.8L707 200.8L711.8 198.2L712.8 197.9L713.6 197.8H714.4L715.9 198.1L721.4 200.7L738.5 204.5L751.4 214.9L756.4 217.6L757 218.1L757.4 218.6L757.6 219.7L756.7 227.3L756.6 230.6L756.7 231.7L757 232.5L757.3 233.1L757.8 233.5L758.3 233.8L761.4 235.1L762.3 235.6L763.1 236.2L764 237L764.8 237.9L766.5 240.4L769.9 246.7L774.7 244.3L777.2 243.6L790.2 243.1L795.5 242L807.5 241.4L808.1 241.6L808.5 242L808.9 242.5L814.7 251.9L817.1 254.7L816.7 255L816.1 256.3V256.4L814.8 258.3L814.7 258.4L810.7 262.5L806.7 270.6L806.5 271.7L806.9 272.9L807.5 273.9L807.7 274.8L807.1 276.2L805.4 278.6L804.7 279.2L803.6 279.8L802.8 279.9H802.2L802 280L801 279.9L800.7 280L800.1 280.6L799.1 281.5L798.9 281.7L794.1 285.9L792.1 288.2L791.5 288.7L783.8 291L781.9 291.3H779H778.5H778.4L776.8 291.4L776.7 291.3L775.6 291.4L774.2 291.5L772.9 291.8L772.4 291.9H771.7L771.1 292.1H770.2L769.7 292L764.9 290.1H764.8L764.4 289.8L763.9 289.9L763.6 290.1L763 290.2L760.8 291.1H760.1L759.6 291.5L759.2 291.7L758.9 291.9L758.8 292.3L758.6 294.1L758.3 295L757.5 296.8L755.9 299.1L750.1 304.7L748.7 305.6L748.3 306L748 306.4L747.5 307.4L746.6 308.7L745.7 309.5L745.2 309.8H744.7L744 310.2L743.3 310.4L741.7 310.5L741 310.8L740.7 311.1L740.6 311.2L740.4 311.4L739.5 312.4L739.2 312.7L738.3 313L737.2 313.5L736.9 313.8L735.8 315.2L733.3 317.4L731.7 317H730.7H730.2L729.7 316.5L729.2 316.3L724.4 315.9L724 315.8H723.1L718.8 315.4L716.3 314.3H715.1L708.7 312.5L704.9 310.8L704.1 310.2L703.5 309.4L702.4 307.4L700.1 305.1L699.2 304.5L698.3 304.3L690.6 304.5L687.9 303.7H687.5L687.1 303.6V303.5L687 301.2V299.4L687.1 297.4L687 296.5L686.8 295.8L686 294.8L685.4 294.3L684.7 293.8L684.1 293.2L683.5 292.4L683.2 289.9L682.9 288.9L682 288L681.2 287.6L680.8 287.1L680.6 286.8V285.5L681.1 274.8L680.7 272.7L680.1 270.8L677.6 265.3L677.1 263.6L676.8 262.9L676.3 262.3L665.8 257.5L665.7 256.2L665.8 255.7L666.1 255L667.9 252.4L668.1 251.7L668.3 250.9L668.2 250.1L668 249.2L667.1 246.1L666.8 244.8V243.9L666.9 240.7L667.3 239.1L668 237.6L670.6 233L672.6 229.1L673.3 226.2L674.3 218.5L674.6 217.3L675 216.2L676 214.5L678.9 211.2L679.7 210.4L681 209.6L682.2 209.1L682.6 209H683.2L686.8 209.7L690.1 209.9L689.6 207.4L689.4 205.5V204.2L689.6 202.1L689.7 201.3L689.9 200.6L690.1 200L690.4 199.4L690.8 198.8L691.3 198.2L691.9 197.6L693.5 196.5L702.2 193.2L703.7 193L704.1 192.9L704.8 192.4L705 192.3L707 192Z" fill="white" stroke="#1A387A" stroke-width="3" stroke-linecap="round" stroke-linejoin="round" class="map-hover-effect" data-region-id="022"></path>
    <path id="path5" d="M665.8 257.5L676.3 262.3L676.8 262.9L677.1 263.6L677.6 265.3L680.1 270.8L680.7 272.7L681.1 274.8L680.6 285.5V286.8L680.8 287.1L681.2 287.6L682 288L682.9 288.9L683.2 289.9L683.5 292.4L684.1 293.2L684.7 293.8L685.4 294.3L686 294.8L686.8 295.8L687 296.5L687.1 297.4L687 299.4V301.2L687.1 303.5V303.6H687L686.7 303.7L686.4 303.8L686.1 304.1L684.8 305L683.7 305.3L683.2 305.6L681.5 306.8L680.8 307.6L680.2 308.5L674.9 319.4L674.6 320.4V321L674.7 322.4V323L674.5 323.8L674.3 324.3L673.7 325.2L673 326.8L672.7 327.2L672.6 327.3L671.9 328L671.3 329.1L670.8 330.4L670.5 331.5V333.1L670.9 333.9L672.7 335L673.2 335.7L673.4 336.4L673.6 337.9L674 339.4L674.7 340.6L677.2 344.2L678.2 345.2L681.4 347.3L682.2 348.2L683 349.2L685.6 353.8L686 355.2L686.1 356.3L686 357.6L685.7 358.7L685 359.1L684.6 359.2L683.2 359.8L681.2 359.7L680.6 360L676.2 365.4L675.4 366.3L674.4 366.7L671.4 367L670.7 367.3L668.9 368.8L662 371.5L658.6 373.5L657.4 374.6L653.6 380L650.3 383.5L649.9 384.3L649.2 386.2L648.2 387.9L647.1 389.2L644.4 391.4L643.8 392L643.1 394L642.5 394.7L635 398L634 398.6L633.7 398.9L633.4 399.2L633.2 399.5L632.8 399.7L632.3 399.8H630.7L628.6 400.1L627.5 400.5L627.1 400.6L625.6 401.4L623.4 402.3L621.9 402.9L621.7 403.1L617.4 406.3H617.3H617.1L616.9 406.4L616.6 406.5L616.2 406.6L615.8 406.9L615.6 407L612.1 407.3L610.7 407.7L610 407.8L602.6 406.9L601.7 407L598.9 408.5L597.9 408.8L597.1 408.9L589.7 407.5H586.1H586H585.9L583.6 407.6L581.2 406.9L579.5 406.7L575.9 407.3L575 388.9L575.1 388L575.5 386.4L575.9 384.6L576 382.8V381.3L575.9 379.8L574.5 372.4L574.2 368.8L574.1 364.1L573.9 358.3L568 340.2L565.5 335.1L565.2 334.2L565.1 333.5V332.3L566.3 326.6L567.8 325.5L568.2 324.8L568.6 323.6L569.4 317.2L569.8 315.6L570.4 314.9L571.1 314.6L573.2 314.4L583.2 313.1L586 311.4L587.3 308.9L588.2 307.5L589.2 306.7L589.7 306.5L590.2 306.4L591.3 306.5L591.9 306.3L592.1 305.8V305L591.5 302.8L589.4 289.8L588.9 281.6L589 278.5L589.7 274.4L591.3 269.6L590.2 269.5L586.4 270.9L585.6 270.5L584.8 269.7L583.8 267.8L583.4 267.3L583.1 266.7L582.8 265.3L582.9 264.1L583.7 258L583.8 255.3L583.7 254.4L583.4 253.2L582.7 251.2L581.7 249.5L577.2 244.7L576.7 244L576.6 243.4L576.9 242.8L577.5 242L580.2 239.7L580.5 239.3L579.1 239.1H577.2L576 238.8L575.1 238.5L574.3 237.7L573.7 236.9L573.3 235.1L574.6 234.4L576 234L577.8 233.6H580.3L584.6 234.4L588.1 234.9L592.6 232.7L594.6 231.6L595.6 230.6L596 230.1L597.9 225.3L601.4 226.9L601.9 228.5L602 229.1L602.1 230L602 232.9V233.2L602.3 233.5L602.6 233.4L602.8 233.3L603.8 231.8L604.3 231.3L604.8 231L605.3 231.2L605.7 231.8L606 232.9L606.1 234.1L606.2 235.2L606.1 236L605.9 237.1L605.4 238.4L603.3 242.4L603 243.2L602.8 244.1V244.6V245.4V245.8L603 246.5L603.2 246.8L604.1 248.7L606.7 251.3L607.4 252.6L608.3 255L608.9 255.9L609.7 256.6L613.9 259.6L616.7 259.9L623.7 259.2L625 258.7L626.3 257.9L630.8 254.2L631 253.8L631.9 251.8L633 248L633.1 247.3L633 246.5L632.3 242.7V241.5L632.6 241L633.8 240.8L635.4 240.9L636.1 241.3L636.9 242.1L637.7 243.7L639.3 246.2L643.9 251L644.5 251.8L645 253L645.8 255.5L646.7 257L649.1 259.4L655 263.1L656.9 263.8H658.5L660.4 262.5L665.8 257.5Z" fill="white" stroke="#1A387A" stroke-width="3" stroke-linecap="round" stroke-linejoin="round" class="map-hover-effect" data-region-id="044"></path>
    <path id="path6" d="M152.8 307V306.8L154.3 294L154.4 289.2L153.7 280.3L153.9 278.9L154.5 278L155.2 277.3L158.4 275.3L159.1 274.7L159.7 273.9L160.7 271.6L161.1 271.1L161.8 270.6L162.2 269.9V269.2L161.9 267.1L162 266.4L164.7 259.5L168 253.7L168.4 252.6L168.5 251.3L168.3 249.9L167.9 248.6L166.1 245.1L165.8 244.3L165.7 243.5L166.1 243.1H166.7L167.4 243.3L170.3 243.6L171.2 243.4L172.7 242.9L175.8 239.9L178.4 238.3L184.1 235.7L185.3 234.8L186.1 233.7L186.3 232.9L186.4 231.4L185.4 229.3L182.8 225.5L181.2 222.6L180.7 221L180.3 219.5V218.3L180.4 217.2L180.2 216.4L179.8 215.7L177.9 214.8L173.9 212.2L168 206.8L165.9 204.8L164.7 203.2L164.6 202.4L164.5 201.7L164.4 199.5L171.3 198.7L174.8 197.3L178.5 195.3L181.2 193.5L182 193.3H183L184.5 193.6L185.7 194.1L186.4 194.6L187.3 195.4L187.7 195.6L188 195.7L190 196L193.3 197.1L197 197.5L200.3 197.4L200.8 197.3L201.8 196.9L202.1 196.8L203 196.9L203.8 196.8L206.2 197.6L207.1 198L207.6 198.6L208.2 199.5L208.7 200.3L209.1 201.1L209.4 201.6L209.7 201.9L210.2 202.4L211.2 202.5L212.4 201.8L213.2 201.5L220.4 201.9L221.6 202.8L222.6 203.3L223.5 203.6L223.8 203.7L225.5 205.4L227.4 206.8L237.7 213.4L238.5 213.8L238.9 213.9L239.9 214.4L240.5 215.1L240.9 215.7L241.5 217.8L242.2 219.3L243.8 221.4L244.4 222.5L245 225.4L245.6 227.1L246 228L246.3 230.5H247.3L254.6 228.2L255.6 228.4L256.6 229L259 230.2L259.3 232.8L259.5 233.9L260 235.2L260.8 236.6L262.8 238.8L263.1 239.5L263 240.9L263.1 241.5L263.3 241.9L264.7 242.1L267.7 242.2H267.9L268.4 242.4L269 242.8L269.3 242.9H269.7L270.4 242.8L270.9 242.7L271.8 242.1L273.3 240.7L273.6 240.4L274 239.7L274.1 239.5L274.3 239.4L274.8 239.3H276L277.4 240.2L279.4 241.5L281.7 242.1L282 244.9L281.8 248.3V249.3L282 250.2L282.3 251.2L282.9 253L283.2 253.5L283.6 254L284.9 254.7L285.5 255.2L285.9 256L286.5 257.9L287.1 258.6L289.5 260.4L290.3 261.2L291.4 262.7L292 263.2L292.6 263.6L294 264L294.9 264.2L295.7 264.4L296.2 264.7L297.2 265.9L302.6 273.5L303.4 275.2L303.9 277.7L305.5 289.1L305.3 290.7L305 292.8L301.7 304L300.8 305.8L300.4 306.2L299.4 307.2L298.9 307.6L298.5 308.4L298.3 309.3L298.2 310.7V312L298.7 317.2V321.3L298.5 322.5L298.1 324.3L297.6 325.5L296.9 326.6L296.5 327.2L295.9 327.8L294.5 328.8L290.9 330.7L290.5 331.3L290.3 332.1V335.7L291.3 345.8V346.9L290 357.7L290.3 361.2L290.2 362.4L290 363.7L287.8 370.9L286.4 373.9L286.2 375V376.2L287.7 396.4L278.4 395.2L274.8 394.7L269 393.6L268.5 393.7L267.3 394L266.7 394.2L258.9 395L248.8 396.1L246.5 396.5L246.3 395.6L246.4 393.7L245.9 391.2L245.8 389L242.6 385.8L241.2 384.6L238.5 382.2L237.6 381L236 379.5L234.6 378.4L233.7 377.3L232.5 375.7L231.9 374.9L231.8 374.1L231.6 371.7L231.2 370.2L231.1 369.2L228.5 363.4L228.3 363L227.8 362L227.7 361.4L225.3 355.4L225 352.7L224.8 352.2L224.2 351.2L222.8 347.7L222.2 346.7H219.1L216.7 345.6V345.3L216.3 345V344.6L216.8 343.9V343.5L217 342.3L217.2 339.9L217.4 339.2L217.5 338.2V337.8L217.8 337.5L218.8 336.7L219.1 336.4V335.3H218.7L215.8 335.8L211.8 336.3L210.9 336.1L209.2 336.6L208.5 336.7L207.4 336.6L206.4 335.6L204.9 335.1L204.3 335.2L202.7 334.7L201.3 334L200.7 333.8L199.4 333.4L199 332.6L198.4 331.6L198.3 331.2L197 329.7L195.9 329L194.9 328.4L194.1 327.7L193.5 327.4L193.2 327.1L191.9 326.4L191.4 326.3L190 326.4L189.3 326.3L188.6 326L188.5 324.7L188.3 323.7L187.6 323.3L186.7 322.9L186.4 322.3L185.4 320.8L183.7 319.7L182.9 319.1L181.8 318.3L180.2 317.3L178.7 316.4L177.4 315.7L176.3 315.3L175 314.5L173.7 313.7L171.3 312.6L170.8 311.8L169.7 311.3L169.3 311.1L165.9 308.8L165.2 309.1H165.1L163.9 309L162.7 308.5L161.4 307.8L160.5 307.9L160.2 307.8L159.6 307.7L159.1 307.8L158.4 307.6L157 307.1L156.4 307H155.5L155.3 306.9L154.5 306.8L152.8 307Z" fill="white" stroke="#1A387A" stroke-width="3" stroke-linecap="round" stroke-linejoin="round" class="map-hover-effect" data-region-id="082"></path>
    <path id="path7" d="M287.7 396.4L286.2 376.2V375L286.4 373.9L287.8 370.9L290 363.7L290.2 362.4L290.3 361.2L290 357.7L291.3 346.9V345.8L290.3 335.7V332.1L290.5 331.3L290.9 330.7L294.5 328.8L295.9 327.8L296.5 327.2L296.9 326.6L297.6 325.5L298.1 324.3L298.5 322.5L298.7 321.3V317.2L298.2 312V310.7L298.3 309.3L298.5 308.4L298.9 307.6L299.4 307.2L300.4 306.2L300.8 305.8L301.7 304L305 292.8L305.3 290.7L305.5 289.1L303.9 277.7L303.4 275.2L302.6 273.5L297.2 265.9L296.2 264.7L295.7 264.4L294.9 264.2L294 264L292.6 263.6L292 263.2L291.4 262.7L290.3 261.2L289.5 260.4L287.1 258.6L286.5 257.9L285.9 256L285.5 255.2L284.9 254.7L283.6 254L283.2 253.5L282.9 253L282.3 251.2L282 250.2L281.8 249.3V248.3L282 244.9L281.7 242.1L281.6 239.8L281.8 238.9L283 235.9L287.4 222.2L287.6 221L287.7 219.7L287.9 218.5L288.4 217.7L289.2 217.2L290.2 217.1L292.9 217L294.6 216.6L296.3 215.9L298.6 212.4L299.4 210.7L299.8 209.5L299.6 208.7L299.4 207.9V206.9L299.8 206.3L301.1 204.9L301.9 203.5L302.4 202.5L302.7 201.7L302.9 200.9L303.1 199.8V199.3V199L303 198.7L304.8 197L305.9 196.3L308.7 195.4L311 195.1L311.5 195.2L312 195.4L312.5 195.6L312.8 196L313.2 196.4L313.9 198.2V200.9L314.3 201.7L314.8 202.3L319.8 205.6L320.5 205.9H321.4L324.8 205.8L327.2 205.4L328 205.1L328.5 204.8L329.1 204.4L330.5 202.5L331.1 202.1L331.8 201.9L333.6 201.6L334.2 201.2L334.7 200.8L335.2 200.1L335.9 199.4L337.9 198.2L338.6 198.1V201.4L338.8 202.7L339.2 203.7L339.7 204.4L340.5 205.2L342.6 206.9L343.3 207.9L343.7 209L343.8 210L343.7 211.1L343.5 213.2V214.2L343.6 215.4L343.9 216.1L344.2 216.9L344.3 217.5L344.4 218.1L344.3 218.9V219.7L344.5 220.7L344.8 221.4L345.3 221.8H345.9L348.4 221.2L358.3 218.2L359.2 218L359.8 218.1L360.1 218.5L360.4 221.1L360.8 222.1L361.5 223.2L361.9 224.2L362.3 225.7L362.5 226.1L362.8 226.3L364.3 226.7L365.2 227L366.1 227.8L366.6 228.6L367.2 230.5L367.6 231.4L368 232L368.6 232.4L370.7 232.3L372.8 231.6H373.8L376.9 232.1L378.2 232L381.7 231.2L382.4 231.5L384.1 233.3L385.2 235.4L385.5 235.9L388.7 239.1L391.4 242.5L391.6 245.8L391.8 246.5L392 247.2L392.4 247.7L392.5 248.3L392.4 249.1L389.9 252.3L389.4 253.4L389.7 254.1L390.1 254.5L390.5 255.2L390.8 256.2L391 258.3V259.9L390.8 260.7L390.6 261.2L390.1 261.9L389.4 262.5L388.5 262.9L387 263.5L386.4 264L385.9 264.7L385.5 265.6L385.1 266.5L384.9 267.5L385 271L385.4 273.1L385.5 274.5L385.4 276.1L384.2 280.4L384.3 282.5L384.2 283.5L383.2 286.1L381.9 287.9L380.3 289.5L380 290L379.8 290.6V291.4L380.2 293.5V294.4L380.1 295.6L380.2 296.2L380.4 296.8L380.7 301.1L380.9 302.6L381.3 304.4L381.6 305.3L381.9 306.1L382.5 306.7L383.2 307.2L386.7 308.3L388.5 309.4L389.6 310.4L392.2 312L392.8 313.1L392 315.3L390.9 318.1L390.8 318.5V319.1L390.9 319.8L391.3 320.8L392.6 323.7L393.4 326L398 344.6L384 353.2L382.6 353.7L382 353.8L360.2 353.5L357.7 354L355.7 353.3L351.6 349.1L348.4 344.8L343.6 340.4L343.2 340.1L342.8 340L342.4 340.1L333.9 342.3L333.7 342.6L333.6 343.1L333.5 345.6L334.8 378L337.7 401.3H337.8L333.6 402.5L322.1 401L310.6 399.5L299.2 398L287.7 396.4Z" fill="white" stroke="#1A387A" stroke-width="3" stroke-linecap="round" stroke-linejoin="round" class="map-hover-effect" data-region-id="064"></path>
    <path id="path8" d="M566.3 326.6L565.1 332.3V333.5L565.2 334.2L565.5 335.1L568 340.2L573.9 358.3L574.1 364.1L574.2 368.8L574.5 372.4L575.9 379.8L576 381.3V382.8L575.9 384.6L575.5 386.4L575.1 388L575 388.9L575.9 407.3L566.6 408.8L565.1 408.7L564.1 409.1L562.6 409.3L560.8 409L559 407.3L557.4 407.5L556.4 408L555 408.2L554 409L553.2 410.3L552.1 410.6L551.7 410.9L550.9 411.4L539.7 413.2L527 418.8L514.3 424.3L503.1 430.2L501.1 431.2L499.9 432.2L499.5 432.4L499 432.6L497.5 433.4L495.9 433.6L495.4 433.8L490.2 439.4L489.3 439.7L488.8 439L487.7 437.9H487.4L487.3 437.8L486.7 437.6L478.5 437.5L476.9 437.3V436.9L476.1 436.7V429.7H475.6V429L464.6 431.2L457 432.7L451.4 431.4L450 430.9L446.3 429.7L444.5 428.8L436.2 424.3L435.3 423.9L433.8 423.6L433.5 423.4L433.1 423.2L430.6 422.1L429 421.1L428.6 420.9L427.3 420L425.3 419.2L422.9 418.9H421L419.7 418.4L418.8 419.2L417.8 418.9L416.7 418.7H415.3L413.6 418.4L411.6 417.3L410.2 416.9L409.3 417.1L407.8 416.5L407.1 415.6L405.7 413.7L405 412.6L399.5 405.1L398.2 404.6L393.8 404.2L393.2 404.1H393.1L392.5 404L389.2 403.4L387.9 403.1L386.1 402.5L375.8 399.7L372.9 398.7L371.4 398.4L368.8 398.5L365.9 398.9L363.1 398.4L358.1 398.5L356.8 399.5L348.9 398.2H347.6L337.8 401.3H337.7L334.8 378L333.5 345.6L333.6 343.1L333.7 342.6L333.9 342.3L342.4 340.1L342.8 340L343.2 340.1L343.6 340.4L348.4 344.8L351.6 349.1L355.7 353.3L357.7 354L360.2 353.5L382 353.8L382.6 353.7L384 353.2L398 344.6L400.2 343.6L408.5 341L422.7 339.9L433.2 340.7L433.3 340.1L433 339L431.3 334.2V332.9L431.6 331.8L433 330.6L433.4 329.9L433.9 328.8L434.4 326.9L434.8 325.6L439.7 315L440.5 313.5L446.4 310.3L451.2 306.6L452 305.7L452.6 304.8L454.6 301L454.9 300.3L455 299.6L464.3 299.8L464.9 300.6L465.1 300.9V301.1V301.3L465 302.1V302.6L465.1 304.2V304.4V304.6L465 304.9L464.7 305.4V305.7V305.9V306.2V306.4L464.8 306.9L464.9 307.2V307.5V308L464.8 308.9L464.7 309.4L464.6 309.7L464.7 310.1L465.8 312.5L466.5 313.3L467.2 313.9L469.3 314.6L481.9 316.6L493.5 317.9L501.5 318.7L503.2 319.1L503.8 319.5L507.4 326.1L509.2 328.7L510 330.3L510.4 331.3V332.1V332.9L510.8 333.9L511.3 334.7L513.6 336.6L515.7 337.9L517.9 338.8L518.8 339L527.6 337.6L530.1 337.2L531.4 336.8L533.5 335.9L536 333.9L538 332.8L554.2 327.2H555L556.3 327.4L558.3 328.4L558.9 328.5L561.7 328.1L566.3 326.6Z" fill="white" stroke="#1A387A" stroke-width="3" stroke-linecap="round" stroke-linejoin="round" class="map-hover-effect" data-region-id="046"></path>
    <path id="path9" d="M422.5 80.2H422.4L420.9 81.1L419.1 82.1L417.9 83.3L416.8 84.5L416.5 84.9L416.2 85.9L416 86.4L415.7 88.2L415.1 89.6L414.9 90L413.9 91.1L413.3 91.6L412.7 92.2L412 92.9L411.2 94L411.1 94.6L409.9 96.3L408.7 97.6L408.1 98.6L407.9 99.4V100.1L408 100.8L408.1 101.2L408.4 101.6L408.9 102L410.4 102.9L412.7 103.9L415.1 104.7L418.7 106.4L420.7 107L423 108.1L425.3 109.4L426.1 110.2L427.1 111.3L424.8 113.1L423.9 113.6L423.5 113.7H422.9L421.3 113.4H420.8L420.2 113.5L419.6 113.9L419.4 114.1L419.1 114.6L418.2 117.2L417.4 118.8L417.1 119.3L416 120.6L414.7 121.7L414.2 122L412.9 122.6L410.6 123.4L409.4 123.5L408.1 124L406 124.5L404.3 125.2L403.7 125.6L403.2 126.1L402.1 127.4L400.8 128.4L400.6 129L400.2 129.7L399.5 130.5L398.8 130.9L398.4 131L397.2 131.2L396.2 132.3L395.8 133L394.8 135.7L394.6 136.4V137.1V138.2L395.1 141L395.2 141.3L389.4 142.5L386.3 142.3L385.4 141.8L378.8 137L370.1 132.3L369.3 131.9L368.6 132L368.3 132.4L368.1 132.6L368 132.8L367.9 133V133.2L367.8 134.1L367.7 134.4L367.3 135L366.9 135.6L365.8 136.4L365.3 136.9V137.2V137.6L365.1 137.9L361.8 138.7H361.2L360.7 138.1L360.3 138.5L360.2 139L360.1 139.6L360 139.8L360.1 140.3L360.3 140.6L360.6 140.8L364 142.7L364.6 143.5V143.7V143.9L364.3 144.3L364.2 144.6L363.5 145.1L363.3 145.2L363.1 145.3H363L362.6 145.4L362.3 145.6L361.1 146.4L360.7 146.6L360.1 146.9V147.1V147.3L360.2 147.5V147.8L360 148L359.7 148.5L359.1 149L358.7 149.7L358.5 150.1L358.6 150.3L359 150.5L359.1 150.6L359.2 150.8L359 151L358.5 151.5L358.4 151.7L358.3 151.9L358.4 152.1L358.5 152.3V152.7L358.2 153.1L358 153.9L357.8 154.4V154.9V155.2L358.1 155.9V156.4L358.2 157L358.4 157.4L358.7 158L358.9 158.3L359 158.5L359.2 158.6L359.5 158.7L360.1 158.8L360.3 158.9L360.4 159L360.7 159.3L361.3 160.2L360.1 161.2L357.6 162L355 162.5L354.2 163L353.9 163.8L354.1 164.7V165.5L353.8 166.5L352.9 166.9L351.9 167.1L351 166.9L350.3 166.6L346 164.1L345 163.6L342.3 163.5L341.7 163.7L341.1 164.2L340.8 164.8L340.5 165.7L340.2 169.2L339.8 170.1L339.4 170.6L338.9 170.7L332.6 171.3L331.9 171.1L331.3 170.9L330.7 170.5L330.1 170.3L329.8 170.4L329.4 170.8L329 171.4L328.5 172.1L327.7 172.7L326.9 172.9L326.2 172.8L325.3 172.3L322.9 169.6L322.7 166.8L321 160.7L320.7 159.2L320.6 157.9L320.7 157L320.8 156.3L321 155.7L323 152.4L323.5 151.3L324 150L324.5 148.1V147.5L324.3 146.7L323.6 144.5L323.2 141.9L322.6 136.7L322.4 135.7L322.2 135.1L321.7 134.6L312.9 135.5L311.5 138.5L310 140.6L308.4 141.7L307.7 141.9L306.6 142L306 141.8L305.4 141.5L304.1 140.5L303.1 139.9L301.1 139.2L297.2 138.7L294.4 138.9L293.6 139.1L292.7 139.5L290.9 140.1L289.6 140L288.9 139.7L280.3 133.3L278.7 132.6L275.8 132.5L270.4 132.1L268.1 131.5L266.7 130.6L260.8 125L260.1 124L259.6 122.4V121.7V120.6L259.9 119.3L260.1 118.6L260.5 117.6L260.9 117L262.2 115.3L264.5 113.2L267 111.5L267.6 110.8L267.9 110.3L267.7 109.8L266.7 108.3L266.5 107.8L266.3 107.4L266.2 106.9L266.1 106.5V106.3L266.5 106.5L267 106.8L267.3 107.6L268 108.7L269.4 109.4L271.1 109.8H272.2L273.4 109.4L274.7 108.8L277.1 107L279 105.6L279.9 104.5L280.1 103.1L279.8 102.3L279.6 101.8L279.7 101.4L281.8 100.9L284.4 99.6L285 99.5L285.6 99.7L286.6 100.8L287.1 101.1L287.6 100.8L288.4 99.8L289.3 99L293.3 96.8L294.9 95L299.3 85.3L299.5 84.6L299.6 83.7L299.5 83L299.3 81.6L299.4 80.1L300.3 77.4L300.4 76L300.2 74.9L299.7 74L299 73.4L298.3 73.1L296.5 72.8L295.8 72.5L293.6 70.8L293 70.2L292.6 69.4L291.2 65.7L290.3 63.4L290.4 62.5L291.6 60.7L291.5 60.2L290.6 59.5L290.2 59L289.9 58.4L289.6 57.9L288.3 57.1L287.3 56L286.5 54.7L286.4 53.3L288.2 49.4L288.7 47.9L288.9 46.4L289.1 45.8L289.9 43.7L290 43L289.9 42L289.5 40.5V39.8L289.7 39L290 38.4L290.8 37.3L291.2 36.7L292.5 33.7L293 32.7L293.4 32.3L293.8 32.2L295.1 31.5L295.8 31.4L298.1 31.9L298.4 31.1L298.5 30L298.3 28L298.4 27L298.7 26.2L299.4 24.6L299.6 23.7L301.3 20.8L303.9 19.6L309.4 18L310.3 17.2L311.2 16.2L312 15L313.9 11.1L314.3 9L314.5 8.3L315.6 6.8L315.8 6.1L315.9 5.4V3.8L316.1 3L317 2H318.1L318.4 2.2L319.1 2.8L319.5 4.2L320 5.3L320.9 5.9L325.8 7.6L326.8 8.2L327.4 9L327.9 9.8L328.5 10.5L329.3 11L335.9 12.9L339.4 13L340.2 13.4L342.3 15.4L344.2 17.6L346.1 19.4L348.6 20.2L351.2 19.9L354.4 20.5L362.9 20.4L364.6 21.4L366.5 22L378.7 28.3L380 29.5L381.2 29.8H382.4L383.5 30.1L384.6 31.1L385.6 32.4L386.6 33H387.7L390.3 32L391.6 31.9L392.8 32.1L394.9 33L396.4 32.9L397.2 33L397.7 33.3L399.2 34.4L399.9 34.7L402.2 34.5L402.7 34.7L403.7 35.6L404.2 35.9L406.4 36L407.1 36.4L407.5 36.9L410.2 38.7L410.4 39.5L410 40.4L408.8 42.5L408.7 43L408.9 43.4L409.1 44.2L409.2 45V45.8L409 47.3L409.1 49L409.6 50.8L410.4 52.4L411.2 53.7L411.5 54.3V54.9L411.3 55.6L411 56.1L411.7 57.3L411.5 58.5L411 59.8L410.7 61L411.1 62.4L411.9 63.3L413.7 64.6L414.3 65.9L414 66.9L413.3 67.9L412.8 69L412.6 70.3L412.9 71.6L413.5 72.8L414.2 73.7L415.5 74.2L418.3 74.6L419.5 75.5L421.5 79.4L422.4 80.1L422.5 80.2Z" fill="white" stroke="#1A387A" stroke-width="3" stroke-linecap="round" stroke-linejoin="round" class="map-hover-effect" data-region-id="067"></path>
    <path id="path10" d="M395.2 141.3L395.1 141L394.6 138.2V137.1V136.4L394.8 135.7L395.8 133L396.2 132.3L397.2 131.2L398.4 131L398.8 130.9L399.5 130.5L400.2 129.7L400.6 129L400.8 128.4L402.1 127.4L403.2 126.1L403.7 125.6L404.3 125.2L406 124.5L408.1 124L409.4 123.5L410.6 123.4L412.9 122.6L414.2 122L414.7 121.7L416 120.6L417.1 119.3L417.4 118.8L418.2 117.2L419.1 114.6L419.4 114.1L419.6 113.9L420.2 113.5L420.8 113.4H421.3L422.9 113.7H423.5L423.9 113.6L424.8 113.1L427.1 111.3L426.1 110.2L425.3 109.4L423 108.1L420.7 107L418.7 106.4L415.1 104.7L412.7 103.9L410.4 102.9L408.9 102L408.4 101.6L408.1 101.2L408 100.8L407.9 100.1V99.4002L408.1 98.6002L408.7 97.6002L409.9 96.3002L411.1 94.6002L411.2 94.0002L412 92.9002L412.7 92.2002L413.3 91.6002L413.9 91.1002L414.9 90.0002L415.1 89.6002L415.7 88.2002L416 86.4002L416.2 85.9002L416.5 84.9002L416.8 84.5002L417.9 83.3002L419.1 82.1002L420.9 81.1002L422.4 80.2002H422.5L426.5 81.2002L430 83.9002L431.2 84.4002L432.5 84.7002L436.9 84.1002L438.9 84.7002L440 87.0002L440.4 88.3002L441 89.1002L441.9 89.4002L444.7 89.1002L445.6 89.3002L446.6 89.8002L448.3 91.0002L450.2 91.9002L452.1 92.0002L455.4 89.6002H457.1L460.7 91.2002L462.6 91.6002L464.9 91.2002L467.1 90.3002L468.5 88.7002L469.1 87.7002L470.6 86.6002L471.4 85.8002L474.1 88.2002L476.3 91.2002L476.6 91.9002L477 93.3002L477.1 94.1002L477.2 95.6002L478.9 97.4002L478.7 97.7002L478.5 98.1002L478 98.3002L477.4 98.5002L476.1 98.6002L476 100.9L476.1 102.4L476.3 103.3L476.6 104.1L477.7 105.6L480.9 109.1L481.5 110.1L482.2 111.5L480.5 113.3V117.8L480.4 119.3L480.2 120.2L479.6 122.6L478.9 123.9L478.3 125.6L477.8 128.4L477.1 131.3L476.7 134.6L476.2 136.7L474.8 136L474 135.8L472.9 135.6L472.2 135.7L471.5 135.9L471.2 136.1L469.5 137.8L465.5 136.5L464.4 136.1L463.2 137.2L461.5 139.5V141.9L466.7 143.4L468.3 143.6L470 144.4L470.9 145L472.2 145.6L473.5 146.9L474.8 148L475.7 149.2L476.8 150.3L476.7 150.6L476.4 151.2L476.1 151.6L476.3 151.9L475.9 152.6L476.2 155.7L476.4 157.4L476.7 161.1V164.4L476.6 166.2L476.1 168.1L475.8 168.7L475.5 169L474 170.1L472.8 171.3L471.8 173.1L471.1 175.1L470.8 175.9L469.6 177.9L470.8 179.2L472.2 181.3L472.4 182.2L472.6 184.4L473.8 185.2L475.5 185.8L477.1 186.1L480 186.2L480.3 186.1L480.6 185.9L481 186L481.2 186.1L481.4 186.3L481.5 186.7L481.6 187.8L481 188.4L481.1 190.4L481.2 191.7L482.4 196.3L483 198.2L480.1 198.5H476.4L476 199.5L475.2 200.8H473L471.5 200.9L470.8 201L469.5 201.5L465.9 203.9L464.7 205.1L463.4 206.3L463.9 207.9L464.2 208.4L464.6 208.9L465.2 209.5L466.1 210.5L466.3 210.9L466.4 211.5V212.1L465.7 213.4L463.6 214L460.1 214.8L457.7 215.1L457.1 215L456.1 214.9L455.4 214.8L454.4 214.9L452.4 215.4L452.2 213.7L451.9 211.7L450 209.8L448.8 208.9L447 207.2L445.7 206.3L444.5 205.2L443.6 203.9L442.9 203L442 201.5L441.4 200L440.5 198.5L439.1 196.6L438.4 196.1L437.8 195.8L437.1 195.7L435.8 195.6L435.1 194.4L434.2 192.4L434 191.8L433.6 190.6L432 189.8L430.1 188.9L429.6 188.5L429.1 188L428.9 187.7L428.8 186.9L428.5 183.8L428.1 181.7L427.8 180.6L427 179.2L426.2 178L425.6 176.7L424.2 174.7L422.8 173.3L421.2 173.1H419.8L419.2 172.9L418.5 172.7L416.7 171.3L416.2 170.9L415.4 169.9L415.1 167.5L414.7 166.4L414 165.6L412.6 164.6L412.1 164.1L411.7 163.5L411.4 162.9L411.2 162L411.3 160.8V160.1L410.6 155.2L409.5 151.4L408.7 149.4L407.5 150.1L406.3 150.9L405.5 151.1H404.9L404.3 150.9L403.8 150.6L403.5 150L403.2 149.2L402.9 148.6L402.2 147.8L401.6 147.4L401.3 147.2L400.6 147.1L399.5 147L398.1 146.1L397.5 145.5L396.9 145L395.9 143.7L395.5 142.9L395.2 141.3Z" fill="white" stroke="#1A387A" stroke-width="3" stroke-linecap="round" stroke-linejoin="round" class="map-hover-effect" data-region-id="063"></path>
    <path id="path11" d="M103.9 154.1V153.3L104 152.2V151.9L103.9 151.6L103.8 151.2L102.8 147.7L102.4 146.7L102.3 146.5L102 146.1L101.1 145.2L100.5 144.1L100.3 143.8L100.1 143.6L99.7 143.4L97.6 142.7L96.8999 142.2L96.5 141.8L94.8 138L94.2 136.1L94.1 136L93.8 135.8L93.6 135.5L91.8 132.7L91.6 132.4L91.5 132V131.8V131.5V131.3L91.6 130.8V130.6V130.3L91.5 129.1L91.3999 128.6L91.2 128.4L91 128.3L90.3 128.2L87.5 127.8L85.8999 127.7L85.1 127.3L85 127.2L84.8999 127L84.4 125.9L84.3 125.4L84.2 125.3V124.9V124.7L84.3 124.2L84.1 123.5L83.8 122.8L80.8 120.3L75.5 117.7L74.8 116.9L74.5 116.6L74.3 116.4L74.1 115.9L74 115.4L73.8 115L73.6 114.5L73.5 114.3L73 112.2L72.6 111.2L70.7 108.2L70.6 107.8L70.5 107.3L70.4 107V105.9V105.7L70.1 104.3L69.3 101.6L68.6 99.7002L68.4 99.4002L68.2 99.2002L67.9 98.9002L66.4 98.0002L65.7 97.6002L65.8 96.7002L66 95.5002L66.4 94.7002L67.3 94.1002L71 93.3002L72.1 92.7002L75.5 90.1002L76.1 89.9002L77.3 89.7002L77.8 89.5002L79.2 88.3002L80.5 88.2002L82.9 88.7002H84.1L84.7 88.5002L85.1 88.3002L85.6 87.9002L86 87.3002L86.1 86.7002V85.4002L86.3999 84.9002L87.3999 84.3002L89.6 83.6002L90.6 82.8002L92.6 80.2002L93.3999 79.5002L94.3999 79.0002H97.7L98.7 78.7002L101.4 77.2002H102.5L104.9 77.7002L105.8 77.4002L106.3 76.7002L106.5 75.7002L106.8 74.8002L107.5 74.1002L110.4 72.9002L111.1 72.1002L112.5 69.4002L113.3 68.7002L115.3 67.5002L117.4 66.7002L119.5 66.5002L124.1 67.4002L126.8 67.3002L129.2 65.9002L130.7 62.7002V61.9002V61.1002L130.9 60.4002L131.3 59.8002L131.8 59.5002L132.5 59.2002L133.2 59.4002L133.6 60.0002L134.2 61.8002L134.9 62.9002L135.8 63.6002L136.9 64.1002L138 64.9002L139.6 67.3002L140.7 67.9002H141.3L142 67.6002L142.6 67.1002L143.1 66.5002L143.4 65.8002L143.6 64.3002L143.8 63.6002L144.8 62.8002L146.6 62.5002L148.4 62.6002L149.5 63.3002L149.9 64.9002V67.0002L150.4 68.8002L150.7 69.7002L150.9 70.2002L151.3 70.5002L151.8 70.8002L153.6 71.3002H154.5L155.9 71.2002L162.5 70.8002L165.8 71.9002L175.7 72.3002L185.6 72.8002L186.2 73.1002L186.6 73.7002L186.7 74.4002L186.8 76.0002L187.9 78.8002L188.1 79.9002L188.3 84.5002L188.6 86.8002L188.9 87.9002L189.3 88.8002L189.9 89.6002L192.3 90.6002L192.8 91.1002L193 91.6002L193.1 92.3002L193.3 92.9002L193.6 93.5002L194.8 94.7002L195.1 95.2002L195.6 96.5002L195.9 96.9002L196.5 97.1002L197.3 97.0002L200 96.0002L204.9 95.8002L205.8 96.0002L206.6 96.7002L207.2 98.1002L207.7 99.1002L207.9 99.4002L209.3 100.2L217.2 100.1L218.4 100.5L219.7 101.5L220.2 102.1L220.6 102.4L220.1 103.2L220.2 104.6L220.6 106.5L220.8 108.9V109.5L220.7 109.7L220.6 110.1L220.1 111.6L219.9 112.6V113.7L220.2 115L220.9 116.7L221.2 117.6L221.6 119.3L221.8 119.9L222.3 120.6L223.1 121.2L224.8 122.2L225.5 122.8L226 123.6L226.4 124.4L226.6 125.6L226.5 128L224.1 132.9L223.8 134.2V135.6L224 136.8L224.2 137.9L224 138.9L223.6 140L223.4 141L223.3 141.9V143.3V143.7L222.9 145.4L221.9 147.4L221 147.8L218.7 147.9L217.4 148.1L215.2 150.2L213.2 151.3L209.8 153.2L206.1 154.2L201.3 154.7L198.7 154.4L198.5 154.3L197.2 153.5L196.4 153.2L193 153.3L191.8 153.1L183.7 149.8H182.5L170.8 156L170.1 156.9L168.8 159.1L167.8 160L166.7 160.8L165.2 162.5L163.5 167.1L160.9 165.7L160.3 165.2L158.5 163.2L157.8 162.7L157.7 162.5L157.5 162.2L157.4 162L157.3 161.5L157.1 160.4L156.9 159.3V159.1L156.8 158.8L156.7 158.6L156.5 158.3L156 157.7L153.7 156.5L153.3 156.2L153.2 156.1L153 155.9L152.7 155.8L151.3 155.5L150.4 155.6L149.3 156L147.9 157.1L146.7 158.5L145.4 159.6L144 160.2L140.9 159.4L130.6 156.9L130.2 157.1L128.9 158.1L128.2 158.2L127.7 157.8L127.1 156.6L126.1 153.7L125.5 152.5L124.7 151.6L124 151.5L123.5 151.6L122.8 151.9H122.3L121.7 151.5L119.8 144.1L119.5 143.4L119 142.9L118.3 142.4L117.3 142.2L116.3 142.4L115 142.9L112.2 144.6L111.3 145.5L109.5 148.5L106.8 152.2L105.2 153.6L103.9 154.1Z" fill="white" stroke="#1A387A" stroke-width="3" stroke-linecap="round" stroke-linejoin="round" class="map-hover-effect" data-region-id="085"></path>
    <path id="path12" d="M476.2 136.7L476.7 134.6L477.1 131.3L477.8 128.4L478.3 125.6L478.9 123.9L479.6 122.6L480.2 120.2L480.4 119.3L480.5 117.8V113.3L482.2 111.5L481.5 110.1L480.9 109.1L477.7 105.6L476.6 104.1L476.3 103.3L476.1 102.4L476 100.9L476.1 98.6002L477.4 98.5002L478 98.3002L478.5 98.1002L478.7 97.7002L478.9 97.4002L477.2 95.6002L477.1 94.1002L477 93.3002L476.6 91.9002L476.3 91.2002L474.1 88.2002L471.4 85.8002L472.1 85.0002L473 84.5002L474.9 84.0002L477.8 84.1002L478.7 83.9002L479.4 83.5002L480.5 82.4002L481.2 82.2002H483.8L484.6 82.0002L486.3 80.8002L487 80.6002L487.9 80.4002L491.2 80.8002H492L492.7 80.6002L493.5 80.2002L496.5 77.5002L497.6 76.9002L499 76.7002L507.8 79.1002L511.8 78.8002L512.5 79.0002L513.9 79.6002L515.3 79.9002L516.8 80.0002L517.6 80.1002L519.1 81.4002L519.2 81.7002V82.1002L519.3 82.5002L519.4 82.9002L519.6 83.1002L521.8 83.3002L522.6 83.7002L523.7 84.6002L524.3 84.9002L524.9 85.0002L530.4 83.3002L533.5 83.0002L536.6 83.4002L539.1 84.2002L540.3 84.9002L544.5 88.6002L545.5 89.1002L545.8 89.5002L546.2 91.2002L546.4 91.6002L547 92.2002L547.2 92.5002L547.4 93.0002L547.6 94.1002L547.9 94.5002L548.3 94.9002L549.1 95.3002L549.5 95.6002L550.9 96.9002L551.7 97.5002L552.6 97.9002L553.5 97.8002L554.2 97.4002L554.9 97.3002L556.6 98.8002L566.9 99.0002L567.3 99.2002L567.5 99.3002L568.5 100.1L569.1 100.2L570 100.1H570.3L571.7 100.6L573 100.7L573.3 101.1L573.2 102.3L573 103L572.7 103.6L572.6 104.3V105.2L573.1 107.3L573.3 108.9V109.5L573.1 110L572.5 111.7V112.2L572.8 112.5L573.5 112.6L574.6 112.5L575 112.9L574.7 113.8V114.5L575 115.2L575.5 115.8L577.5 117.3L578.1 117.6L580.5 117.9L581.2 118.2L581.6 118.7L581.9 119.2L582.1 119.8L582.4 120.4L584 122.4L587.9 125.9L589.7 127.1L590.6 127.2L589.7 131.5L589.3 136L588.2 135.9H587.3L584 136.4L583 136.7L581 137.6L579.2 138.7L578.8 139.2L578.1 140L577 140.9L574.4 139L573.7 138.7L572.7 138.3L571.9 138.1L570.8 138H568.7L567.9 138.1L566.2 138.6L565.3 138.9L563.3 140.4L561.3 142.3L562.8 145.1L563.2 145.6L564 146.3L565.8 147.2L566.4 147.5L566.6 147.8L566.9 148.4L567.1 149.1L567 150.1L566.3 151.8L565.8 153.5L565.3 154.9L564.8 156.2L564.5 156.7L564.3 157L563.7 157.3L563.1 157.4L561.6 157.2H561.1L560.6 157.4L559.7 158L558.5 158.6L556.8 159.2L553.4 160.3L552.2 158.8L551.8 158.4L551.2 158.1L550.5 157.8L549.5 157.7L548.4 157.8L546.2 158.4H545.7L543.6 158.3L542.7 158.5L542.2 158.7L541.4 159.4L540.7 160.2L539.5 161.3L538.7 161.7L537.7 162H536.8L534.2 161.4L533.1 161L531.5 160.1L531.2 159.4L530.7 158.9L526.3 156.8L522.9 154.7L522 155.4L521.3 155.9L519.9 156.4L518.5 155.5L518 155L517.7 154.7L518.3 153.1L518.8 151.4V150.3L518.6 149.6L518.4 149.3L517.9 148.7L517 148L516.1 147.7L513.3 147.1L508.1 148.4L506.3 149L505.6 149.4L504.2 150.3L502.3 151.8L502.7 152.9L503.2 155.2L503.7 156.6L501.8 157.6L499.9 158.5L498.3 159.4L497.4 160L496.8 160.2L495.1 160.5L494.5 160.7L492.6 161.7L492 162.2L491.4 162.4L490.8 162.5H490.1L488.6 162.1L486.8 161.3L484.8 160.7L483.4 160.2L481.4 159.3L476.4 157.4L476.2 155.7L475.9 152.6L476.3 151.9L476.1 151.6L476.4 151.2L476.7 150.6L476.8 150.3L475.7 149.2L474.8 148L473.5 146.9L472.2 145.6L474.8 143.9L476.1 142.8L477 141.9L477.4 141.4L477.6 140.8V140.2L477.3 139.5L476.5 137.9L476.2 136.7ZM528.3 118.6L527.4 118.4L526 118L524.8 117.4L523.6 116.5L522.3 115.9L521.4 115.3L520.2 114.8L519.1 114.5L519.4 113.5L519.9 112.2L521.5 110.3L521.8 109.8L521.9 109.6L522 109V108L521.8 105.5L519.5 106.3L519.2 106.5L519.1 106.6L518.3 108.3L517.7 109.2L517.3 109.6L516.9 109.8L515.2 111L515 111.3L514.3 112.6L514 113.1L513.3 113.7L513.5 115.1L514 116.3L514.1 117.2L514.3 118L514.8 118.9L515 119.4L515.1 119.9V120V121L515 122.9L514.8 123.7L514.1 128L513.7 131.4L513.1 134.5L512.6 135.6L514.3 136.3L515.4 136.7L518.5 137.2H519.1L519.8 137.1L520.5 136.9L520.8 136.8L521.4 136.3L522.4 135.2L524.2 134.1L525.9 133.5L526.6 133.4L528.1 133.3L529 134.6L530.4 135.6L531.3 136.1L535 137.5L538.2 136.6L540.6 135.6L540.5 132.3L540.1 129.9L540.3 127.6L540.6 125.3L540.7 122.6L540.6 120.9L540.4 120.1L540 119.3L539.7 118.8L538.9 118L538.4 117.7L537.4 117.2L536.5 116.6L535.6 116.2L532.3 115L531.3 116.7L530.7 117.4L529.6 118.3L529 118.5L528.3 118.6Z" fill="white" stroke="#1A387A" stroke-width="3" stroke-linecap="round" stroke-linejoin="round" class="map-hover-effect" data-region-id="043"></path>
    <path id="path13" d="M164.4 199.5L161.9 195L158.5 190.3L158.2 189.5V188.4L158.1 187.2L157.8 185.7L157.2 184.1L156 180.2L158 178.9L159.5 177.6L162.9 174L163.8 172.7L164.2 171.8L164.3 171.5L164.4 171.1V170.3V169.9V169.6L164.6 169.2V169L164.7 168.9L164.8 168.8V168.6V168.3L164.7 168.1L164.4 167.8L163.5 167.1L165.2 162.5L166.7 160.8L167.8 160L168.8 159.1L170.1 156.9L170.8 156L182.5 149.8H183.7L191.8 153.1L193 153.3L196.4 153.2L197.2 153.5L198.5 154.3L198.7 154.4L201.3 154.7L206.1 154.2L209.8 153.2L213.2 151.3L215.2 150.2L217.4 148.1L218.7 147.9L221 147.8L221.9 147.4L222.9 145.4L223.3 143.7V143.3V141.9L223.4 141L223.6 140L224 138.9L224.2 137.9L224 136.8L223.8 135.6V134.2L224.1 132.9L226.5 128L226.6 125.6L226.4 124.4L226 123.6L225.5 122.8L224.8 122.2L223.1 121.2L222.3 120.6L221.8 119.9L221.6 119.3L221.2 117.6L220.9 116.7L220.2 115L219.9 113.7V112.6L220.1 111.6L220.6 110.1L220.7 109.7L220.8 109.5V108.9L220.6 106.5L220.2 104.6L220.1 103.2L220.6 102.4L220.7 102.5L221.3 102.8L221.8 102.6L222.3 102.1L223 101L223.6 100.6L226.4 100.2L227.5 99.5999L228.6 98.0999L229.4 97.2999L230.5 96.8999L231.6 97.0999L232.3 98.0999L232.7 99.2999L233.2 100.2L233.9 100.5L234.7 99.8999L235 99.2999L235.3 98.7999L235.7 98.3999L236.1 98.0999L236.5 97.8999L237 97.7999L237.4 97.8999L237.8 98.0999L242 99.9999L243.3 101L244.5 102.3L245.2 102.7L245.9 102.8L246.7 102.5L248.1 101.6L248.8 101.2H249.6L250.2 101.5L250.6 102.1L251 103.1L251.4 103.8L251.9 104L252.5 103.8L253.1 103.3L254.6 101.7L255.2 101.6L262.8 102.8L263.8 103.7L264.8 105.5L265.3 106L266.1 106.3V106.5L266.2 106.9L266.3 107.4L266.5 107.8L266.7 108.3L267.7 109.8L267.9 110.3L267.6 110.8L267 111.5L264.5 113.2L262.2 115.3L260.9 117L260.5 117.6L260.1 118.6L259.9 119.3L259.6 120.6V121.7V122.4L260.1 124L260.8 125L266.7 130.6L268.1 131.5L270.4 132.1L275.8 132.5L278.7 132.6L280.3 133.3L288.9 139.7L289.6 140L290.9 140.1L292.7 139.5L293.6 139.1L294.4 138.9L297.2 138.7L301.1 139.2L303.1 139.9L304.1 140.5L305.4 141.5L306 141.8L306.6 142L307.7 141.9L308.4 141.7L310 140.6L311.5 138.5L312.9 135.5L321.7 134.6L322.2 135.1L322.4 135.7L322.6 136.7L323.2 141.9L323.6 144.5L324.3 146.7L324.5 147.5V148.1L324 150L323.5 151.3L323 152.4L321 155.7L320.8 156.3L320.7 157L320.6 157.9L320.7 159.2L321 160.7L322.7 166.8L322.9 169.6L314.1 173.7L312.5 173.9L311.6 174.3L310.8 175.2L309.8 177.2L309 178.2L307.8 179L305.6 179.7L299.6 179.8L298.8 180.1L298.1 180.5L297.6 181.1L297.2 181.6L296.5 183.8L296.7 184.9L297.7 187.4L298.1 188.9L298.2 190L298 190.9L296.8 194.9L296.7 195.9L296.8 196.7L297.1 197.4L298 197.9L298.8 198.2L303 198.7L303.1 199V199.3V199.8L302.9 200.9L302.7 201.7L302.4 202.5L301.9 203.5L301.1 204.9L299.8 206.3L299.4 206.9V207.9L299.6 208.7L299.8 209.5L299.4 210.7L298.6 212.4L296.3 215.9L294.6 216.6L292.9 217L290.2 217.1L289.2 217.2L288.4 217.7L287.9 218.5L287.7 219.7L287.6 221L287.4 222.2L283 235.9L281.8 238.9L281.6 239.8L281.7 242.1L279.4 241.5L277.4 240.2L276 239.3H274.8L274.3 239.4L274.1 239.5L274 239.7L273.6 240.4L273.3 240.7L271.8 242.1L270.9 242.7L270.4 242.8L269.7 242.9H269.3L269 242.8L268.4 242.4L267.9 242.2H267.7L264.7 242.1L263.3 241.9L263.1 241.5L263 240.9L263.1 239.5L262.8 238.8L260.8 236.6L260 235.2L259.5 233.9L259.3 232.8L259 230.2L256.6 229L255.6 228.4L254.6 228.2L247.3 230.5H246.3L246 228L245.6 227.1L245 225.4L244.4 222.5L243.8 221.4L242.2 219.3L241.5 217.8L240.9 215.7L240.5 215.1L239.9 214.4L238.9 213.9L238.5 213.8L237.7 213.4L227.4 206.8L225.5 205.4L223.8 203.7L223.5 203.6L222.6 203.3L221.6 202.8L220.4 201.9L213.2 201.5L212.4 201.8L211.2 202.5L210.2 202.4L209.7 201.9L209.4 201.6L209.1 201.1L208.7 200.3L208.2 199.5L207.6 198.6L207.1 198L206.2 197.6L203.8 196.8L203 196.9L202.1 196.8L201.8 196.9L200.8 197.3L200.3 197.4L197 197.5L193.3 197.1L190 196L188 195.7L187.7 195.6L187.3 195.4L186.4 194.6L185.7 194.1L184.5 193.6L183 193.3H182L181.2 193.5L178.5 195.3L174.8 197.3L171.3 198.7L164.4 199.5Z" fill="white" stroke="#1A387A" stroke-width="3" stroke-linecap="round" stroke-linejoin="round" class="map-hover-effect" data-region-id="081"></path>
    <path id="path14" d="M691.2 122.3V122.4L693.3 125.4L693.4 125.7V125.9L693.3 126.2L693.1 126.6L692.6 127L692.5 127.2L692.4 127.4L692.5 129.4L693.4 135.2L694.5 138.4L694.6 139.6V140.4L693.9 142.5L693.6 143.5L694.1 145L695.2 147.6L700.7 157.9L702.4 162.2L702.9 163.9L703.2 166.3V168.8L702.5 170.6L702.1 173.5L702.8 180.7L704.3 183.6L704.6 184.2L705.8 186.7L707 192L705 192.3L704.8 192.4L704.1 192.9L703.7 193L702.2 193.2L693.5 196.5L691.9 197.6L691.3 198.2L690.8 198.8L690.4 199.4L690.1 200L689.9 200.6L689.7 201.3L689.6 202.1L689.4 204.2V205.5L689.6 207.4L690.1 209.9L686.8 209.7L683.2 209H682.6L682.2 209.1L681 209.6L679.7 210.4L678.9 211.2L676 214.5L675 216.2L674.6 217.3L674.3 218.5L673.3 226.2L672.6 229.1L670.6 233L668 237.6L667.3 239.1L666.9 240.7L666.8 243.9V244.8L667.1 246.1L668 249.2L668.2 250.1L668.3 250.9L668.1 251.7L667.9 252.4L666.1 255L665.8 255.7L665.7 256.2L665.8 257.5L660.4 262.5L658.5 263.8H656.9L655 263.1L649.1 259.4L646.7 257L645.8 255.5L645 253L644.5 251.8L643.9 251L639.3 246.2L637.7 243.7L636.9 242.1L636.1 241.3L635.4 240.9L633.8 240.8L632.6 241L632.3 241.5V242.7L633 246.5L633.1 247.3L633 248L631.9 251.8L631 253.8L630.8 254.2L626.3 257.9L625 258.7L623.7 259.2L616.7 259.9L613.9 259.6L609.7 256.6L608.9 255.9L608.3 255L607.4 252.6L606.7 251.3L604.1 248.7L603.2 246.8L603 246.5L602.8 245.8V245.4V244.6V244.1L603 243.2L603.3 242.4L605.4 238.4L605.9 237.1L606.1 236L606.2 235.2L606.1 234.1L606 232.9L605.7 231.8L605.3 231.2L604.8 231L604.3 231.3L603.8 231.8L602.8 233.3L602.6 233.4L602.3 233.5L602 233.2V232.9L602.1 230L602 229.1L601.9 228.5L601.4 226.9L597.9 225.3L596 223.8L595.1 222.9L594.1 221.7L593.8 220.9L593.3 219.3L592.2 216L591.8 215.5L590.9 214.5L590.6 214L590 211.6V211.2L589.8 210.9L588.1 209L587.8 208.7L587.5 207.9L587 206L586.8 205.7L586.5 205.5L586.2 205.3L585.9 205.1L585.7 204.6L585.9 203.9L586.3 203.3L586.6 202.6L586.7 201.6L586.5 201.1L586.2 200.5L586.1 200L586.2 199.6L586.5 199.3L586.7 199.1L587 198.8L588 196.8L588.2 196.1L588.3 195.7V194.7V194.5L588.5 194.1L588.3 193.8L588 193.5L587.8 193.1L587.9 191.7L587.8 191.2L587.5 189.5L587.6 189L588.1 188.2L588.2 187.6L590.1 187.2L591.5 186.8L592.2 186.5L593.4 185.8L593.9 185.4L595.1 184.3L596.8 182.6L597.8 181.7L598.2 181.4L599.2 180.9L599.5 180.7L599.9 180.3L600.3 179.3L600.7 177.3L601.3 175.6L601.9 174.6L602.4 174.1L602.8 173.8L603.3 172.8L603.8 171.4L603.9 170.3L603.8 169.3L603.3 166.8L602.5 164.7L602.1 163L601.4 160.5L600.5 155.5L600 154.1L599.4 152.7L599.2 152L598.9 149.9L598.7 149.2L597.6 147.2L596.4 144.2L595.4 142.4L594.3 141.2L592.6 139.5L592 138.9L591.4 138.4L590.9 137.7L590.1 137.1L589.3 136L589.7 131.5L590.6 127.2L591.7 127.3L595.8 126.5L598.8 126.6L600.8 126.2L603.7 127.1H604.4L607.3 126.3L610.9 126.7L611.6 126.9L612.3 127.3L613.8 127.9L614.4 128.2L615.5 128.1L615.9 128.3L616 128.6L616.1 129.3L616.2 129.7L616.7 129.9L617.4 130.2L623.4 129.8L625 130.4L625.9 131.5H626.3L628.6 132.1L636.2 134.3L637.4 134.2L638.6 133.7L639.8 132.8L640.8 131.8L641.3 131.2L641.5 130.9H641.9L643.3 132.5L643.8 132.9L645.4 133.3L648.1 135L649.3 135.4L650.5 135.5L651.7 135.4L654.8 134.3L658.3 132.3L663.2 128.7L667 127.3L667.6 127L668.4 125.9L668.9 125.5L669.6 125.4L670.2 125.6L671.5 126.3L672.2 126.5H672.9L673.5 126.3L676.7 124.6L678 124.2L688.4 123.5L691.2 122.3Z" fill="white" stroke="#1A387A" stroke-width="3" stroke-linecap="round" stroke-linejoin="round" class="map-hover-effect" data-region-id="023"></path>
    <path id="path15" d="M528.3 118.6L529 118.5L529.6 118.3L530.7 117.4L531.3 116.7L532.3 115L535.6 116.2L536.5 116.6L537.4 117.2L538.4 117.7L538.9 118L539.7 118.8L540 119.3L540.4 120.1L540.6 120.9L540.7 122.6L540.6 125.3L540.3 127.6L540.1 129.9L540.5 132.3L540.6 135.6L538.2 136.6L535 137.5L531.3 136.1L530.4 135.6L529 134.6L528.1 133.3L526.6 133.4L525.9 133.5L524.2 134.1L522.4 135.2L521.4 136.3L520.8 136.8L520.5 136.9L519.8 137.1L519.1 137.2H518.5L515.4 136.7L514.3 136.3L512.6 135.6L513.1 134.5L513.7 131.4L514.1 128L514.8 123.7L515 122.9L515.1 121V120V119.9L515 119.4L514.8 118.9L514.3 118L514.1 117.2L514 116.3L513.5 115.1L513.3 113.7L514 113.1L514.3 112.6L515 111.3L515.2 111L516.9 109.8L517.3 109.6L517.7 109.2L518.3 108.3L519.1 106.6L519.2 106.5L519.5 106.3L521.8 105.5L522 108V109L521.9 109.6L521.8 109.8L521.5 110.3L519.9 112.2L519.4 113.5L519.1 114.5L520.2 114.8L521.4 115.3L522.3 115.9L523.6 116.5L524.8 117.4L526 118L527.4 118.4L528.3 118.6Z" fill="white" stroke="#1A387A" stroke-width="3" stroke-linecap="round" stroke-linejoin="round" class="map-hover-effect" data-region-id="045"></path>
    <path id="path16" d="M597.9 225.3L596 230.1L595.6 230.6L594.6 231.6L592.6 232.7L588.1 234.9L584.6 234.4L580.3 233.6H577.8L576 234L574.6 234.4L573.3 235.1L570.5 235.7L570.3 237.3L570.1 238.9L569.9 241.4L569.8 242L569.5 242.7L569.3 243L568.8 243.5L568.5 243.7L567.8 243.9L565.4 244.2L564.1 244.7L563.5 245.1L563.3 245.3L561.8 247.5L561.4 247.9L560.9 248.3L558 249.4L556.6 249.8L555.9 249.9L551.4 250.1L549.1 250.4L547.4 249.2L546.2 248.1L544.5 246.4L543.4 245.3L541.6 244.3L540.6 244L537.8 243.4H535.9H533.4H528L522.6 243.3L522.3 242.5L522.1 242.2L521.6 241.7L521 241.3L518 240.4L517 240L515.7 239.1L513.9 237.4L513.4 237L513.1 236.9L512.4 236.8L511.4 236.9L509.5 237.3L508.4 237.8L505.9 241.3L505.3 242L503.2 244.8L501 248.9L499.6 247.7L498.5 246.9L497.8 246.3L496.1 245.3L494.2 244.6L491.4 243.7L488.8 242.7L486.3 245.9L485.3 246.9L483.7 248L479.9 251.3L479.3 250.7L478.6 249.7L477.3 248.5L473.7 246L473.2 245.6L473 245.2L472.7 244.6L472.6 243.9V240L472.5 239.3L472.3 238.5L472 237.7L471.2 236.6L470.6 235.3L470.1 234.6L469.2 233.3L468.1 231.9L469.3 230.6L470 230L470.5 229.8L471.3 229.7L471.5 227.9L471.6 226.8L471.5 225.9L471.3 225.2L471.1 224.6L470.8 224.1L469.7 222.9L467.9 221.3L466.9 220.1L466.6 219.6L466.1 218.3L465.7 215.9L465.6 214.8L465.7 213.4L466.4 212.1V211.5L466.3 210.9L466.1 210.5L465.2 209.5L464.6 208.9L464.2 208.4L463.9 207.9L463.4 206.3L464.7 205.1L465.9 203.9L469.5 201.5L470.8 201L471.5 200.9L473 200.8H475.2L476 199.5L476.4 198.5H480.1L483 198.2L482.4 196.3L481.2 191.7L481.1 190.4L481 188.4L481.6 187.8L481.5 186.7L481.4 186.3L481.2 186.1L481 186L480.6 185.9L480.3 186.1L480 186.2L477.1 186.1L475.5 185.8L473.8 185.2L472.6 184.4L472.4 182.2L472.2 181.3L470.8 179.2L469.6 177.9L470.8 175.9L471.1 175.1L471.8 173.1L472.8 171.3L474 170.1L475.5 169L475.8 168.7L476.1 168.1L476.6 166.2L476.7 164.4V161.1L476.4 157.4L481.4 159.3L483.4 160.2L484.8 160.7L486.8 161.3L488.6 162.1L490.1 162.5H490.8L491.4 162.4L492 162.2L492.6 161.7L494.5 160.7L495.1 160.5L496.8 160.2L497.4 160L498.3 159.4L499.9 158.5L501.8 157.6L503.7 156.6L503.2 155.2L502.7 152.9L502.3 151.8L504.2 150.3L505.6 149.4L506.3 149L508.1 148.4L513.3 147.1L516.1 147.7L517 148L517.9 148.7L518.4 149.3L518.6 149.6L518.8 150.3V151.4L518.3 153.1L517.7 154.7L518 155L518.5 155.5L519.9 156.4L521.3 155.9L522 155.4L522.9 154.7L526.3 156.8L530.7 158.9L531.2 159.4L531.5 160.1L533.1 161L534.2 161.4L536.8 162H537.7L538.7 161.7L539.5 161.3L540.7 160.2L541.4 159.4L542.2 158.7L542.7 158.5L543.6 158.3L545.7 158.4H546.2L548.4 157.8L549.5 157.7L550.5 157.8L551.2 158.1L551.8 158.4L552.2 158.8L553.4 160.3L556.8 159.2L558.5 158.6L559.7 158L560.6 157.4L561.1 157.2H561.6L563.1 157.4L563.7 157.3L564.3 157L564.5 156.7L564.8 156.2L565.3 154.9L565.8 153.5L566.3 151.8L567 150.1L567.1 149.1L566.9 148.4L566.6 147.8L566.4 147.5L565.8 147.2L564 146.3L563.2 145.6L562.8 145.1L561.3 142.3L563.3 140.4L565.3 138.9L566.2 138.6L567.9 138.1L568.7 138H570.8L571.9 138.1L572.7 138.3L573.7 138.7L574.4 139L577 140.9L578.1 140L578.8 139.2L579.2 138.7L581 137.6L583 136.7L584 136.4L587.3 135.9H588.2L589.3 136L590.1 137.1L590.9 137.7L591.4 138.4L592 138.9L592.6 139.5L594.3 141.2L595.4 142.4L596.4 144.2L597.6 147.2L598.7 149.2L598.9 149.9L599.2 152L599.4 152.7L600 154.1L600.5 155.5L601.4 160.5L602.1 163L602.5 164.7L603.3 166.8L603.8 169.3L603.9 170.3L603.8 171.4L603.3 172.8L602.8 173.8L602.4 174.1L601.9 174.6L601.3 175.6L600.7 177.3L600.3 179.3L599.9 180.3L599.5 180.7L599.2 180.9L598.2 181.4L597.8 181.7L596.8 182.6L595.1 184.3L593.9 185.4L593.4 185.8L592.2 186.5L591.5 186.8L590.1 187.2L588.2 187.6L584.5 187.4L582.5 189.4L581.6 190.5L581.2 191.3L580.6 193.1L580.2 194.5L580.1 195.6L580.2 196.4L580.7 198.2L581 199.8L581.9 201.2L582.5 201.7L583.1 202L586.6 202.6L586.3 203.3L585.9 203.9L585.7 204.6L585.9 205.1L586.2 205.3L586.5 205.5L586.8 205.7L587 206L587.5 207.9L587.8 208.7L588.1 209L589.8 210.9L590 211.2V211.6L590.6 214L590.9 214.5L591.8 215.5L592.2 216L593.3 219.3L593.8 220.9L594.1 221.7L595.1 222.9L596 223.8L597.9 225.3ZM542.9 176.7L542.3 176.5L540.6 175.8L539.9 175.6L537.5 175.1L534.6 174.4H534.7L528.1 173.1L528.6 175L529.1 177L529.9 179.8L530.2 185.3L530.9 186.3L531.3 186.9L531.7 188.2L532.1 189.6V192.9L532.3 193.7L532.5 194.4L532.8 194.7L533.4 195.1L535.8 195.7L536.8 196.1L541 195.7L544.3 195.1H545L547.2 195.2L548.3 195.4L549.4 195.8L550.4 196.6L552.6 198.5L553.3 198.9L554.1 199.1L555.8 199.3L557.9 199.2L559.2 199L560.7 198.6L560.8 197.6L561.6 193.7L561.9 191.7L562.6 188.9V188.2L562.4 187.6L562 187L561.2 186.5L559.4 185.9L557.6 185.5L556.9 185.3L556.2 184.9L555.7 184.4L555.2 183.9L554.4 182.8L553.6 181.9L551.9 179.1L550.4 177.3L549.8 176.2L549.1 174.7L546.3 175.9L544 176.6L542.9 176.7Z" fill="white" stroke="#1A387A" stroke-width="3" stroke-linecap="round" stroke-linejoin="round" class="map-hover-effect" data-region-id="041"></path>
    <path id="path17" d="M384.1 233.3L382.4 231.5L381.7 231.2L378.2 232L376.9 232.1L373.8 231.6H372.8L370.7 232.3L368.6 232.4L368 232L367.6 231.4L367.2 230.5L366.6 228.6L366.1 227.8L365.2 227L364.3 226.7L362.8 226.3L362.5 226.1L362.3 225.7L361.9 224.2L361.5 223.2L360.8 222.1L360.4 221.1L360.1 218.5L359.8 218.1L359.2 218L358.3 218.2L348.4 221.2L345.9 221.8H345.3L344.8 221.4L344.5 220.7L344.3 219.7V218.9L344.4 218.1L344.3 217.5L344.2 216.9L343.9 216.1L343.6 215.4L343.5 214.2V213.2L343.7 211.1L343.8 210L343.7 209L343.3 207.9L342.6 206.9L340.5 205.2L339.7 204.4L339.2 203.7L338.8 202.7L338.6 201.4V198.1L337.9 198.2L335.9 199.4L335.2 200.1L334.7 200.8L334.2 201.2L333.6 201.6L331.8 201.9L331.1 202.1L330.5 202.5L329.1 204.4L328.5 204.8L328 205.1L327.2 205.4L324.8 205.8L321.4 205.9H320.5L319.8 205.6L314.8 202.3L314.3 201.7L313.9 200.9V198.2L313.2 196.4L312.8 196L312.5 195.6L312 195.4L311.5 195.2L311 195.1L308.7 195.4L305.9 196.3L304.8 197L303 198.7L298.8 198.2L298 197.9L297.1 197.4L296.8 196.7L296.7 195.9L296.8 194.9L298 190.9L298.2 190L298.1 188.9L297.7 187.4L296.7 184.9L296.5 183.8L297.2 181.6L297.6 181.1L298.1 180.5L298.8 180.1L299.6 179.8L305.6 179.7L307.8 179L309 178.2L309.8 177.2L310.8 175.2L311.6 174.3L312.5 173.9L314.1 173.7L322.9 169.6L325.3 172.3L326.2 172.8L326.9 172.9L327.7 172.7L328.5 172.1L329 171.4L329.4 170.8L329.8 170.4L330.1 170.3L330.7 170.5L331.3 170.9L331.9 171.1L332.6 171.3L338.9 170.7L339.4 170.6L339.8 170.1L340.2 169.2L340.5 165.7L340.8 164.8L341.1 164.2L341.7 163.7L342.3 163.5L345 163.6L346 164.1L350.3 166.6L351 166.9L351.9 167.1L352.9 166.9L353.8 166.5L354.1 165.5V164.7L353.9 163.8L354.2 163L355 162.5L357.6 162L360.1 161.2L361.3 160.2L360.7 159.3L360.4 159L360.3 158.9L360.1 158.8L359.5 158.7L359.2 158.6L359 158.5L358.9 158.3L358.7 158L358.4 157.4L358.2 157L358.1 156.4V155.9L357.8 155.2V154.9V154.4L358 153.9L358.2 153.1L358.5 152.7V152.3L358.4 152.1L358.3 151.9L358.4 151.7L358.5 151.5L359 151L359.2 150.8L359.1 150.6L359 150.5L358.6 150.3L358.5 150.1L358.7 149.7L359.1 149L359.7 148.5L360 148L360.2 147.8V147.5L360.1 147.3V147.1V146.9L360.7 146.6L361.1 146.4L362.3 145.6L362.6 145.4L363 145.3H363.1L363.3 145.2L363.5 145.1L364.2 144.6L364.3 144.3L364.6 143.9V143.7V143.5L364 142.7L360.6 140.8L360.3 140.6L360.1 140.3L360 139.8L360.1 139.6L360.2 139L360.3 138.5L360.7 138.1L361.2 138.7H361.8L365.1 137.9L365.3 137.6V137.2V136.9L365.8 136.4L366.9 135.6L367.3 135L367.7 134.4L367.8 134.1L367.9 133.2V133L368 132.8L368.1 132.6L368.3 132.4L368.6 132L369.3 131.9L370.1 132.3L378.8 137L385.4 141.8L386.3 142.3L389.4 142.5L395.2 141.3L395.5 142.9L395.9 143.7L396.9 145L397.5 145.5L398.1 146.1L399.5 147L400.6 147.1L401.3 147.2L401.6 147.4L402.2 147.8L402.9 148.6L403.2 149.2L403.5 150L403.8 150.6L404.3 150.9L404.9 151.1H405.5L406.3 150.9L407.5 150.1L408.7 149.4L409.5 151.4L410.6 155.2L411.3 160.1V160.8L411.2 162L411.4 162.9L411.7 163.5L412.1 164.1L412.6 164.6L414 165.6L414.7 166.4L415.1 167.5L415.4 169.9L416.2 170.9L416.7 171.3L418.5 172.7L419.2 172.9L419.8 173.1H421.2L422.8 173.3L424.2 174.7L425.6 176.7L426.2 178L427 179.2L427.8 180.6L428.1 181.7L428.5 183.8L428.8 186.9L428.9 187.7L429.1 188L429.6 188.5L430.1 188.9L432 189.8L433.6 190.6L434 191.8L434.2 192.4L435.1 194.4L435.8 195.6L437.1 195.7L437.8 195.8L438.4 196.1L439.1 196.6L440.5 198.5L441.4 200L442 201.5L442.9 203L443.6 203.9L444.5 205.2L445.7 206.3L447 207.2L448.8 208.9L450 209.8L451.9 211.7L452.2 213.7L452.4 215.4L449.4 217.3L448.1 217.6L443.7 217.8L438.7 217.2L437.6 216.8L437 216.3L435.5 213L434.9 212L434.1 211.2L429.2 209.4L428.5 209.3H426.9L424.6 208L424.3 207.9L423.5 207.8L423.1 208.2L422.8 208.8L422.9 209.7L423.2 210.5L423.6 211.1L424.1 211.7L424.6 212L425.3 212.3L425.7 212.6L425.6 213.9L423.9 217.7L422.8 219.6L420.6 221.1L420.3 221.7L420 222.5L419.9 224.6L419.4 226.9L417.9 227.5L417.2 227.3L416.5 226.8L415.9 226.2L414.8 224.4L414.1 223.7L413.4 223.5H412.6L409.3 224.9L403.4 226.6L401.4 228.1L400.6 229L399.3 229.9L384.1 233.3Z" fill="white" stroke="#1A387A" stroke-width="3" stroke-linecap="round" stroke-linejoin="round" class="map-hover-effect" data-region-id="065"></path>
    <path id="path18" d="M472.2 145.6L470.9 145L470 144.4L468.3 143.6L466.7 143.4L461.5 141.9V139.5L463.2 137.2L464.4 136.1L465.5 136.5L469.5 137.8L471.2 136.1L471.5 135.9L472.2 135.7L472.9 135.6L474 135.8L474.8 136L476.2 136.7L476.5 137.9L477.3 139.5L477.6 140.2V140.8L477.4 141.4L477 141.9L476.1 142.8L474.8 143.9L472.2 145.6Z" fill="white" stroke="#1A387A" stroke-width="3" stroke-linecap="round" stroke-linejoin="round" class="map-hover-effect" data-region-id="061"></path>
    <path id="path19" d="M573.3 235.1L573.7 236.9L574.3 237.7L575.1 238.5L576 238.8L577.2 239.1H579.1L580.5 239.3L580.2 239.7L577.5 242L576.9 242.8L576.6 243.4L576.7 244L577.2 244.7L581.7 249.5L582.7 251.2L583.4 253.2L583.7 254.4L583.8 255.3L583.7 258L582.9 264.1L582.8 265.3L583.1 266.7L583.4 267.3L583.8 267.8L584.8 269.7L585.6 270.5L586.4 270.9L590.2 269.5L591.3 269.6L589.7 274.4L589 278.5L588.9 281.6L589.4 289.8L591.5 302.8L592.1 305V305.8L591.9 306.3L591.3 306.5L590.2 306.4L589.7 306.5L589.2 306.7L588.2 307.5L587.3 308.9L586 311.4L583.2 313.1L573.2 314.4L571.1 314.6L570.4 314.9L569.8 315.6L569.4 317.2L568.6 323.6L568.2 324.8L567.8 325.5L566.3 326.6L561.7 328.1L558.9 328.5L558.3 328.4L556.3 327.4L555 327.2H554.2L538 332.8L536 333.9L533.5 335.9L531.4 336.8L530.1 337.2L527.6 337.6L518.8 339L517.9 338.8L515.7 337.9L513.6 336.6L511.3 334.7L510.8 333.9L510.4 332.9V332.1V331.3L510 330.3L509.2 328.7L507.4 326.1L503.8 319.5L503.2 319.1L501.5 318.7L493.5 317.9L481.9 316.6L469.3 314.6L467.2 313.9L466.5 313.3L465.8 312.5L464.7 310.1L464.6 309.7L464.7 309.4L464.8 308.9L464.9 308V307.5V307.2L464.8 306.9L464.7 306.4V306.2V305.9V305.7V305.4L465 304.9L465.1 304.6V304.4V304.2L465 302.6V302.1L465.1 301.3V301.1V300.9L464.9 300.6L464.3 299.8L455 299.6V297L455.2 296.1L455.5 295.3L456.2 293.8L455.8 292.7L452.8 289.8L451.6 288.2L451.1 287.2L450.7 286.4L450.6 285.4L450.4 284.4V283.6L450.6 282.9L450.9 282.2L452 280.6L453.6 279.1L454.2 278.6L454.9 278.3L456.8 278L463.2 277.2L464.5 274.9L464.7 272.1L465.9 266.1L466 265.6L466.2 262.7L466.3 262.3L466.6 261.8L467.1 261.6L467.9 261.3L471.5 261L473.3 260.3L473.9 259.6L474.3 258.8L474.7 257.9L476.4 255.8L476.6 254.8L476.7 252.9L476.9 251.9L477.1 251.3L478.6 249.7L479.3 250.7L479.9 251.3L483.7 248L485.3 246.9L486.3 245.9L488.8 242.7L491.4 243.7L494.2 244.6L496.1 245.3L497.8 246.3L498.5 246.9L499.6 247.7L501 248.9L503.2 244.8L505.3 242L505.9 241.3L508.4 237.8L509.5 237.3L511.4 236.9L512.4 236.8L513.1 236.9L513.4 237L513.9 237.4L515.7 239.1L517 240L518 240.4L521 241.3L521.6 241.7L522.1 242.2L522.3 242.5L522.6 243.3L528 243.4H533.4H535.9H537.8L540.6 244L541.6 244.3L543.4 245.3L544.5 246.4L546.2 248.1L547.4 249.2L549.1 250.4L551.4 250.1L555.9 249.9L556.6 249.8L558 249.4L560.9 248.3L561.4 247.9L561.8 247.5L563.3 245.3L563.5 245.1L564.1 244.7L565.4 244.2L567.8 243.9L568.5 243.7L568.8 243.5L569.3 243L569.5 242.7L569.8 242L569.9 241.4L570.1 238.9L570.3 237.3L570.5 235.7L573.3 235.1Z" fill="white" stroke="#1A387A" stroke-width="3" stroke-linecap="round" stroke-linejoin="round" class="map-hover-effect" data-region-id="048"></path>
    <path id="path20" d="M398 344.6L393.4 326L392.6 323.7L391.3 320.8L390.9 319.8L390.8 319.1V318.5L390.9 318.1L392 315.3L392.8 313.1L392.2 312L389.6 310.4L388.5 309.4L386.7 308.3L383.2 307.2L382.5 306.7L381.9 306.1L381.6 305.3L381.3 304.4L380.9 302.6L380.7 301.1L380.4 296.8L380.2 296.2L380.1 295.6L380.2 294.4V293.5L379.8 291.4V290.6L380 290L380.3 289.5L381.9 287.9L383.2 286.1L384.2 283.5L384.3 282.5L384.2 280.4L385.4 276.1L385.5 274.5L385.4 273.1L385 271L384.9 267.5L385.1 266.5L385.5 265.6L385.9 264.7L386.4 264L387 263.5L388.5 262.9L389.4 262.5L390.1 261.9L390.6 261.2L390.8 260.7L391 259.9V258.3L390.8 256.2L390.5 255.2L390.1 254.5L389.7 254.1L389.4 253.4L389.9 252.3L392.4 249.1L392.5 248.3L392.4 247.7L392 247.2L391.8 246.5L391.6 245.8L391.4 242.5L388.7 239.1L385.5 235.9L385.2 235.4L384.1 233.3L399.3 229.9L400.6 229L401.4 228.1L403.4 226.6L409.3 224.9L412.6 223.5H413.4L414.1 223.7L414.8 224.4L415.9 226.2L416.5 226.8L417.2 227.3L417.9 227.5L419.4 226.9L419.9 224.6L420 222.5L420.3 221.7L420.6 221.1L422.8 219.6L423.9 217.7L425.6 213.9L425.7 212.6L425.3 212.3L424.6 212L424.1 211.7L423.6 211.1L423.2 210.5L422.9 209.7L422.8 208.8L423.1 208.2L423.5 207.8L424.3 207.9L424.6 208L426.9 209.3H428.5L429.2 209.4L434.1 211.2L434.9 212L435.5 213L437 216.3L437.6 216.8L438.7 217.2L443.7 217.8L448.1 217.6L449.4 217.3L452.4 215.4L454.4 214.9L455.4 214.8L456.1 214.9L457.1 215L457.7 215.1L460.1 214.8L463.6 214L465.7 213.4L465.6 214.8L465.7 215.9L466.1 218.3L466.6 219.6L466.9 220.1L467.9 221.3L469.7 222.9L470.8 224.1L471.1 224.6L471.3 225.2L471.5 225.9L471.6 226.8L471.5 227.9L471.3 229.7L470.5 229.8L470 230L469.3 230.6L468.1 231.9L469.2 233.3L470.1 234.6L470.6 235.3L471.2 236.6L472 237.7L472.3 238.5L472.5 239.3L472.6 240V243.9L472.7 244.6L473 245.2L473.2 245.6L473.7 246L477.3 248.5L478.6 249.7L477.1 251.3L476.9 251.9L476.7 252.9L476.6 254.8L476.4 255.8L474.7 257.9L474.3 258.8L473.9 259.6L473.3 260.3L471.5 261L467.9 261.3L467.1 261.6L466.6 261.8L466.3 262.3L466.2 262.7L466 265.6L465.9 266.1L464.7 272.1L464.5 274.9L463.2 277.2L456.8 278L454.9 278.3L454.2 278.6L453.6 279.1L452 280.6L450.9 282.2L450.6 282.9L450.4 283.6V284.4L450.6 285.4L450.7 286.4L451.1 287.2L451.6 288.2L452.8 289.8L455.8 292.7L456.2 293.8L455.5 295.3L455.2 296.1L455 297V299.6L454.9 300.3L454.6 301L452.6 304.8L452 305.7L451.2 306.6L446.4 310.3L440.5 313.5L439.7 315L434.8 325.6L434.4 326.9L433.9 328.8L433.4 329.9L433 330.6L431.6 331.8L431.3 332.9V334.2L433 339L433.3 340.1L433.2 340.7L422.7 339.9L408.5 341L400.2 343.6L398 344.6Z" fill="white" stroke="#1A387A" stroke-width="3" stroke-linecap="round" stroke-linejoin="round" class="map-hover-effect" data-region-id="062"></path>
    <path id="path22" d="M588.2 187.6L588.1 188.2L587.6 189L587.5 189.5L587.8 191.2L587.9 191.7L587.8 193.1L588 193.5L588.3 193.8L588.5 194.1L588.3 194.5V194.7V195.7L588.2 196.1L588 196.8L587 198.8L586.7 199.1L586.5 199.3L586.2 199.6L586.1 200L586.2 200.5L586.5 201.1L586.7 201.6L586.6 202.6L583.1 202L582.5 201.7L581.9 201.2L581 199.8L580.7 198.2L580.2 196.4L580.1 195.6L580.2 194.5L580.6 193.1L581.2 191.3L581.6 190.5L582.5 189.4L584.5 187.4L588.2 187.6Z" fill="white" stroke="#1A387A" stroke-width="3" stroke-linecap="round" stroke-linejoin="round" class="map-hover-effect" data-region-id="011"></path>
    <path id="path23" d="M542.9 176.7L544 176.6L546.3 175.9L549.1 174.7L549.8 176.2L550.4 177.3L551.9 179.1L553.6 181.9L554.4 182.8L555.2 183.9L555.7 184.4L556.2 184.9L556.9 185.3L557.6 185.5L559.4 185.9L561.2 186.5L562 187L562.4 187.6L562.6 188.2V188.9L561.9 191.7L561.6 193.7L560.8 197.6L560.7 198.6L559.2 199L557.9 199.2L555.8 199.3L554.1 199.1L553.3 198.9L552.6 198.5L550.4 196.6L549.4 195.8L548.3 195.4L547.2 195.2L545 195.1H544.3L541 195.7L536.8 196.1L535.8 195.7L533.4 195.1L532.8 194.7L532.5 194.4L532.3 193.7L532.1 192.9V189.6L531.7 188.2L531.3 186.9L530.9 186.3L530.2 185.3L529.9 179.8L529.1 177L528.6 175L528.1 173.1L534.7 174.4H534.6L537.5 175.1L539.9 175.6L540.6 175.8L542.3 176.5L542.9 176.7Z" fill="none" stroke="#1A387A" stroke-width="3" stroke-linecap="round" stroke-linejoin="round" class="map-hover-effect" data-region-id="011"></path>
</svg>
